<svg xmlns="http://www.w3.org/2000/svg" width="136.484" height="136.484" viewBox="0 0 136.484 136.484">
  <g id="Group_1866" data-name="Group 1866" transform="translate(0 0)">
    <g id="Group_1859" data-name="Group 1859" transform="translate(0 0)">
      <path id="Path_6058" data-name="Path 6058" d="M13.417,0H123.068a13.417,13.417,0,0,1,13.417,13.417V123.067a13.417,13.417,0,0,1-13.417,13.417H13.417A13.417,13.417,0,0,1,0,123.067V13.417A13.417,13.417,0,0,1,13.417,0Z" fill="#252527"/>
      <g id="Group_1858" data-name="Group 1858" transform="translate(27.327 39.385)">
        <path id="Union_20" data-name="Union 20" d="M0,0H15.174C25.458,0,31.362,4.843,31.362,16.561V40.649c0,11.717-5.9,16.559-16.188,16.559H0ZM6.575,50.685h8.6c5.3,0,9.611-3.016,9.611-9.033v-26.1c0-6.015-4.308-9.033-9.611-9.033h-8.6Z" transform="translate(0 0)" fill="#fff"/>
        <path id="Union_21" data-name="Union 21" d="M14.871,14.528a8.731,8.731,0,0,0-7.834,4.5h0V3.782a10.245,10.245,0,0,1-3.98-1.274A10.4,10.4,0,0,1,.019,0H0V4.133H0l.021,46.9,7.016.008V46.612h0c1.7,3.319,3.191,5.016,6.506,5.016,6.191,0,11.349-6.492,11.349-19.251C24.892,21.757,21.208,14.528,14.871,14.528ZM11.7,45.136c-1.325,0-3.169-.811-4.2-4.572a20.318,20.318,0,0,1-.467-3.352v-7.9A25.372,25.372,0,0,1,7.5,25.887c.44-2.359,2.136-4.647,4.2-4.647,3.759,0,6.246,5.5,6.246,12.134C17.948,40.6,15.533,45.136,11.7,45.136Z" transform="translate(37.018 6.087)" fill="#fff"/>
        <path id="Path_6027" data-name="Path 6027" d="M66.1,153.916c-2.956,0-6.364,2.353-7.768,6.017l-.081.01V154.51h0A11.606,11.606,0,0,1,55.7,156.29a11.12,11.12,0,0,1-4.164,1.265v32.637h6.713V171.359a14.863,14.863,0,0,1,.3-3.445,8.251,8.251,0,0,1,7.553-6.156,5.325,5.325,0,0,1,1.625.147v-7.842A8.669,8.669,0,0,0,66.1,153.916Z" transform="translate(14.105 -132.985)" fill="#fff"/>
      </g>
    </g>
  </g>
</svg>
