<svg id="Layer_1" data-name="Layer 1" xmlns="http://www.w3.org/2000/svg" viewBox="0 0 494.05 80"><defs><style>.cls-1{fill:#323234;}.cls-2{fill:#fff;}</style></defs><title>DBR_Horizontal_Pos</title><path class="cls-1" d="M119,33.28l3.07,13.3c.43,1.82.66,3.35,1,4.79h.1c.24-1.3.62-3.07,1-4.74l2.73-13.35h3.64l-3.78,14.88c-1.44,5.84-3,11.44-5.75,14.93a12.62,12.62,0,0,1-4.16,3.54l-1.34-3.16a11.28,11.28,0,0,0,3.26-2.92,14.14,14.14,0,0,0,2.1-3.87,3.32,3.32,0,0,0,.24-1.15,2.51,2.51,0,0,0-.1-.86l-5.83-21.39Z"/><path class="cls-1" d="M133.68,39.26c0-2.73-.15-4.12-.2-6h3.21l.19,2.77h.1a5.88,5.88,0,0,1,5.31-3.16c3.2,0,5.6,2.4,5.6,8V56.44H144.2V41.51c0-2.73-.52-5.5-3.2-5.5-1.53,0-3,1.29-3.5,3.78a13.66,13.66,0,0,0-.14,2.05v14.6h-3.68Z"/><path class="cls-1" d="M162.2,56.44,162,54h-.15a5.19,5.19,0,0,1-4.59,2.82c-3.11,0-5.5-2.63-5.5-6.6,0-5.79,4.64-8.38,9.85-8.42v-.72c0-3.11-.76-5.27-3.68-5.27a7,7,0,0,0-3.83,1.2l-.81-2.58a9.92,9.92,0,0,1,5.41-1.54c4.64,0,6.65,3.07,6.65,8.28v10a36.74,36.74,0,0,0,.24,5.27Zm-.53-12c-1.91,0-6.36.34-6.36,5.36,0,3,1.53,4.12,2.82,4.12,1.63,0,3-1.2,3.44-3.49a5.88,5.88,0,0,0,.1-1.3Z"/><path class="cls-1" d="M170.47,39.26c0-2.73-.14-4.12-.19-6h3.21l.19,2.87h.1A5.8,5.8,0,0,1,179,32.89a4.84,4.84,0,0,1,4.84,3.55h.09a7.44,7.44,0,0,1,2.3-2.64,5.61,5.61,0,0,1,3.2-.91c3.11,0,5.55,2.3,5.55,8.19V56.44h-3.63V41.94c0-3-.43-5.93-3.26-5.93-1.53,0-2.87,1.29-3.39,3.44a13.5,13.5,0,0,0-.15,2.11V56.44h-3.63V41.27c0-2.59-.48-5.26-3.21-5.26-1.48,0-3,1.29-3.44,3.73a12.64,12.64,0,0,0-.15,2V56.44h-3.64Z"/><path class="cls-1" d="M199.52,52.61a7.32,7.32,0,0,0,3.73,1.2,3.13,3.13,0,0,0,3.4-3.35c0-1.77-.62-3-3-4.55-3-2-4.64-3.92-4.64-6.6a6.23,6.23,0,0,1,6.37-6.42,8,8,0,0,1,4.16,1.2l-1,2.78a5.44,5.44,0,0,0-3.07-1,2.83,2.83,0,0,0-3,2.92c0,1.58.57,2.44,2.87,4,2.68,1.72,4.78,3.83,4.78,7,0,4.65-3.15,6.89-6.93,6.89a8,8,0,0,1-4.6-1.33Z"/><path class="cls-1" d="M228.18,44.86c0,9-4.16,12-7.7,12-4.16,0-7.51-3.78-7.51-11.91,0-8.47,3.78-12,7.75-12C224.84,32.89,228.18,36.77,228.18,44.86Zm-11.53,0c0,3.83.67,9,4,9,3.16,0,3.78-5.45,3.78-9s-.62-9-3.87-9S216.65,41.32,216.65,44.86Z"/><path class="cls-1" d="M233.07,56.44V36.1h-2.92V33.28h2.92V31.89c0-2.49.38-5.07,2.05-7a6.29,6.29,0,0,1,4.65-2,6.39,6.39,0,0,1,2.87.58L242,26.39a4.77,4.77,0,0,0-2-.39c-2.63,0-3.25,2.83-3.25,5.84v1.44H241V36.1h-4.21V56.44Z"/><path class="cls-1" d="M248,27.15v6.13h4.45V36.1H248V49.83c0,3,1.1,3.83,2.44,3.83a7.16,7.16,0,0,0,1.48-.14l.15,2.82a8.1,8.1,0,0,1-2.73.38,4.71,4.71,0,0,1-3.64-1.38c-.91-1.06-1.39-2.63-1.39-5.84V36.1h-2.82V33.28h2.82V28.21Z"/><path class="cls-1" d="M263.45,24.66a22.56,22.56,0,0,1,5.41-.62c2.92,0,5.41.62,7.13,2.25a7.27,7.27,0,0,1,2.1,5.5,7.44,7.44,0,0,1-5,7.18v.1c3.73,1,6,4,6,8.23a9.25,9.25,0,0,1-2.3,6.41c-1.82,2.06-4.83,2.92-8.51,2.92a25.3,25.3,0,0,1-4.84-.34Zm3.69,13.21h1.67a5.54,5.54,0,0,0,5.6-5.69c0-3-1.39-5.27-5.31-5.27a6.67,6.67,0,0,0-2,.24Zm0,15.65a8.92,8.92,0,0,0,1.86.19c3.83,0,6.32-2.25,6.32-6.41,0-4.45-3.11-6.56-6.56-6.61h-1.62Z"/><path class="cls-1" d="M292.5,56.44,292.26,54h-.14a5.21,5.21,0,0,1-4.6,2.82c-3.11,0-5.5-2.63-5.5-6.6,0-5.79,4.64-8.38,9.86-8.42v-.72c0-3.11-.77-5.27-3.69-5.27a7,7,0,0,0-3.83,1.2l-.81-2.58A10,10,0,0,1,289,32.89c4.64,0,6.65,3.07,6.65,8.28v10a36.74,36.74,0,0,0,.24,5.27Zm-.53-12c-1.91,0-6.36.34-6.36,5.36,0,3,1.53,4.12,2.82,4.12,1.63,0,3-1.2,3.45-3.49a6.52,6.52,0,0,0,.09-1.3Z"/><path class="cls-1" d="M300.73,39.26c0-2-.14-4.26-.19-6h3.3l.19,3.63h.1c.76-2.2,2.72-4,4.88-4,.28,0,.52,0,.76,0v3.78a4.59,4.59,0,0,0-.76,0c-2.35,0-4.07,2.15-4.45,4.83a13.46,13.46,0,0,0-.15,2.1V56.44h-3.68Z"/><path class="cls-1" d="M323.27,55.86a7.94,7.94,0,0,1-3.83.86c-5.07,0-8.47-4.06-8.47-11.72,0-6.65,3.35-12.06,9.14-12.06a7.48,7.48,0,0,1,3.25.72l-.71,3a6,6,0,0,0-2.64-.63c-3.68,0-5.36,4.41-5.36,9,0,5.41,2.06,8.66,5.46,8.66a6.35,6.35,0,0,0,2.68-.62Z"/><path class="cls-1" d="M340.35,44.86c0,9-4.16,12-7.7,12-4.17,0-7.52-3.78-7.52-11.91,0-8.47,3.78-12,7.76-12S340.35,36.77,340.35,44.86Zm-11.53,0c0,3.83.67,9,4,9,3.16,0,3.78-5.45,3.78-9s-.62-9-3.88-9S328.82,41.32,328.82,44.86Z"/><path class="cls-1" d="M358.39,23.32V50.89c0,1.58.15,4.21.19,5.55h-3.16l-.23-2.92H355a5.33,5.33,0,0,1-4.83,3.3c-3.92,0-6.75-4.26-6.75-11.87,0-8.23,3.4-12.06,7-12.06a4.5,4.5,0,0,1,4.21,2.78h.09V23.32Zm-3.64,18.76c0-.48,0-1,0-1.53-.24-2.39-1.68-4.5-3.45-4.5-3.06,0-4.11,4.26-4.11,8.9,0,4.88,1.24,8.81,3.92,8.81,1.15,0,2.73-.62,3.54-4a7,7,0,0,0,.14-1.53Z"/><path class="cls-1" d="M366.14,45.19c.05,7.08,2.83,8.62,5.51,8.62a7.79,7.79,0,0,0,3.82-.91l.58,2.72a11.15,11.15,0,0,1-5.07,1.1c-5.55,0-8.43-4.54-8.43-11.62,0-7.52,3.16-12.21,7.8-12.21s6.61,5,6.61,10.25c0,.86,0,1.48,0,2Zm7.28-2.72c.09-4.65-1.68-6.7-3.45-6.7-2.39,0-3.64,3.54-3.78,6.7Z"/><path class="cls-1" d="M388.73,24.66A21,21,0,0,1,394,24c3.21,0,5.6.67,7.28,2.3a8.73,8.73,0,0,1,2.24,6.32,8.4,8.4,0,0,1-5.16,8.27V41c2.39.72,3.63,3,4.35,7.23a45.82,45.82,0,0,0,1.82,8.18h-3.73a42.16,42.16,0,0,1-1.73-8c-.71-4.41-2.1-6.08-5.26-6.08h-1.44V56.44h-3.68Zm3.68,14.89H394c3.54,0,5.88-2.59,5.88-6.46s-1.53-6-5.5-6.08a7.59,7.59,0,0,0-1.92.19Z"/><path class="cls-1" d="M410.6,45.19c0,7.08,2.82,8.62,5.5,8.62a7.86,7.86,0,0,0,3.83-.91l.57,2.72a11.12,11.12,0,0,1-5.07,1.1c-5.55,0-8.42-4.54-8.42-11.62,0-7.52,3.16-12.21,7.8-12.21s6.6,5,6.6,10.25c0,.86,0,1.48,0,2Zm7.27-2.72c.1-4.65-1.67-6.7-3.44-6.7-2.39,0-3.64,3.54-3.78,6.7Z"/><path class="cls-1" d="M434.53,56.44,434.29,54h-.15a5.19,5.19,0,0,1-4.59,2.82c-3.11,0-5.5-2.63-5.5-6.6,0-5.79,4.64-8.38,9.85-8.42v-.72c0-3.11-.76-5.27-3.68-5.27a7,7,0,0,0-3.83,1.2l-.81-2.58a9.91,9.91,0,0,1,5.4-1.54c4.65,0,6.66,3.07,6.66,8.28v10a38.32,38.32,0,0,0,.23,5.27Zm-.53-12c-1.92,0-6.37.34-6.37,5.36,0,3,1.54,4.12,2.83,4.12,1.62,0,3-1.2,3.44-3.49a5.88,5.88,0,0,0,.1-1.3Z"/><path class="cls-1" d="M456.73,23.32V50.89c0,1.58.14,4.21.19,5.55h-3.16l-.24-2.92h-.14a5.34,5.34,0,0,1-4.83,3.3c-3.93,0-6.75-4.26-6.75-11.87,0-8.23,3.4-12.06,7-12.06A4.5,4.5,0,0,1,453,35.67h.09V23.32Zm-3.64,18.76c0-.48,0-1,0-1.53-.23-2.39-1.67-4.5-3.44-4.5-3.06,0-4.12,4.26-4.12,8.9,0,4.88,1.25,8.81,3.93,8.81,1.15,0,2.73-.62,3.54-4a7.67,7.67,0,0,0,.14-1.53Z"/><path class="cls-1" d="M464.48,45.19c0,7.08,2.82,8.62,5.5,8.62a7.86,7.86,0,0,0,3.83-.91l.58,2.72a11.19,11.19,0,0,1-5.08,1.1c-5.55,0-8.42-4.54-8.42-11.62,0-7.52,3.16-12.21,7.8-12.21s6.61,5,6.61,10.25c0,.86,0,1.48-.05,2Zm7.27-2.72c.1-4.65-1.67-6.7-3.44-6.7-2.39,0-3.64,3.54-3.78,6.7Z"/><path class="cls-1" d="M479.22,39.26c0-2-.14-4.26-.19-6h3.3l.19,3.63h.1c.76-2.2,2.73-4,4.88-4,.29,0,.53,0,.76,0v3.78a4.47,4.47,0,0,0-.76,0c-2.35,0-4.07,2.15-4.45,4.83a13.52,13.52,0,0,0-.14,2.1V56.44h-3.69Z"/><path class="cls-1" d="M93.13,56.69v-34H102c6.39,0,9.5,3.18,9.5,9.72V47c0,6.55-3.11,9.73-9.5,9.73Zm3.38-3.35H102c3.72,0,6.12-2.27,6.12-5.77V31.77c0-3.5-2.4-5.76-6.12-5.76H96.51Z"/><rect class="cls-1" x="6.5" y="6.94" width="66.12" height="66.12" rx="6.5"/><path class="cls-2" d="M27.09,26H19.74V53.73h7.35c5,0,7.84-2.34,7.84-8V34C34.93,28.37,32.07,26,27.09,26ZM31.75,46.2c0,2.91-2.09,4.37-4.66,4.37H22.92V29.18h4.17c2.57,0,4.66,1.46,4.66,4.38Z"/><path class="cls-2" d="M44.88,36a4.22,4.22,0,0,0-3.8,2.18V30.8a4.91,4.91,0,0,1-1.93-.62A5.15,5.15,0,0,1,37.68,29h0v2h0V53.69h3.4V51.55C41.9,53.16,42.63,54,44.23,54c3,0,5.5-3.14,5.5-9.33C49.73,39.51,48,36,44.88,36ZM43.34,50.84c-.64,0-1.54-.4-2-2.22A9.15,9.15,0,0,1,41.08,47V43.17a11.06,11.06,0,0,1,.23-1.66c.21-1.14,1-2.25,2-2.25,1.82,0,3,2.66,3,5.88C46.37,48.64,45.2,50.84,43.34,50.84Z"/><path class="cls-2" d="M58.59,36.16a4.38,4.38,0,0,0-3.76,2.92h0V36.45h0a5.51,5.51,0,0,1-1.23.86,5.31,5.31,0,0,1-2,.61V53.73h3.25V44.61a7.76,7.76,0,0,1,.14-1.67,4,4,0,0,1,3.66-3,2.6,2.6,0,0,1,.79.07v-3.8A4.78,4.78,0,0,0,58.59,36.16Z"/></svg>