<svg id="Layer_1" data-name="Layer 1" xmlns="http://www.w3.org/2000/svg" viewBox="0 0 494.05 80"><defs><style>.cls-1{fill:#fff;}.cls-2{fill:#ddd;}.cls-3{fill:#323234;}</style></defs><title>DBR_Horizontal_REV_White</title><path class="cls-1" d="M118.66,33.28l3.06,13.3c.43,1.82.67,3.35,1,4.79h.1c.23-1.3.62-3.07,1-4.74l2.73-13.35h3.63l-3.78,14.88c-1.43,5.84-3,11.44-5.74,14.93a12.72,12.72,0,0,1-4.16,3.54l-1.34-3.16a11.13,11.13,0,0,0,3.25-2.92,13.93,13.93,0,0,0,2.11-3.87,3.32,3.32,0,0,0,.24-1.15,2.51,2.51,0,0,0-.1-.86l-5.84-21.39Z"/><path class="cls-1" d="M133.3,39.26c0-2.73-.14-4.12-.19-6h3.21l.19,2.77h.09a5.91,5.91,0,0,1,5.32-3.16c3.2,0,5.59,2.4,5.59,8V56.44h-3.68V41.51c0-2.73-.53-5.5-3.21-5.5-1.53,0-3,1.29-3.49,3.78a13.66,13.66,0,0,0-.14,2.05v14.6H133.3Z"/><path class="cls-1" d="M161.82,56.44,161.58,54h-.14a5.19,5.19,0,0,1-4.59,2.82c-3.11,0-5.51-2.63-5.51-6.6,0-5.79,4.65-8.38,9.86-8.42v-.72c0-3.11-.76-5.27-3.68-5.27a7,7,0,0,0-3.83,1.2l-.81-2.58a9.91,9.91,0,0,1,5.4-1.54c4.64,0,6.65,3.07,6.65,8.28v10a36.74,36.74,0,0,0,.24,5.27Zm-.52-12c-1.92,0-6.37.34-6.37,5.36,0,3,1.53,4.12,2.83,4.12,1.62,0,3-1.2,3.44-3.49a5.88,5.88,0,0,0,.1-1.3Z"/><path class="cls-1" d="M170.1,39.26c0-2.73-.14-4.12-.19-6h3.21l.19,2.87h.09a5.82,5.82,0,0,1,5.22-3.26,4.83,4.83,0,0,1,4.83,3.55h.1a7.34,7.34,0,0,1,2.3-2.64,5.58,5.58,0,0,1,3.2-.91c3.11,0,5.55,2.3,5.55,8.19V56.44H191V41.94c0-3-.44-5.93-3.26-5.93-1.53,0-2.87,1.29-3.4,3.44a14.93,14.93,0,0,0-.14,2.11V56.44h-3.64V41.27c0-2.59-.47-5.26-3.2-5.26-1.49,0-3,1.29-3.45,3.73a14,14,0,0,0-.14,2V56.44H170.1Z"/><path class="cls-1" d="M199.15,52.61a7.29,7.29,0,0,0,3.73,1.2,3.13,3.13,0,0,0,3.4-3.35c0-1.77-.62-3-3-4.55-3-2-4.64-3.92-4.64-6.6A6.23,6.23,0,0,1,205,32.89a8,8,0,0,1,4.17,1.2l-1,2.78a5.38,5.38,0,0,0-3.06-1,2.83,2.83,0,0,0-3,2.92c0,1.58.57,2.44,2.87,4,2.68,1.72,4.78,3.83,4.78,7,0,4.65-3.16,6.89-6.94,6.89a7.92,7.92,0,0,1-4.59-1.33Z"/><path class="cls-1" d="M227.81,44.86c0,9-4.16,12-7.7,12-4.16,0-7.51-3.78-7.51-11.91,0-8.47,3.78-12,7.75-12S227.81,36.77,227.81,44.86Zm-11.53,0c0,3.83.67,9,4,9,3.16,0,3.78-5.45,3.78-9s-.62-9-3.88-9S216.28,41.32,216.28,44.86Z"/><path class="cls-1" d="M232.69,56.44V36.1h-2.92V33.28h2.92V31.89c0-2.49.39-5.07,2.06-7a6.28,6.28,0,0,1,4.64-2,6.36,6.36,0,0,1,2.87.58l-.62,2.87a4.77,4.77,0,0,0-2-.39c-2.63,0-3.25,2.83-3.25,5.84v1.44h4.21V36.1h-4.21V56.44Z"/><path class="cls-1" d="M247.58,27.15v6.13H252V36.1h-4.45V49.83c0,3,1.1,3.83,2.44,3.83a7.16,7.16,0,0,0,1.48-.14l.14,2.82a8,8,0,0,1-2.72.38,4.71,4.71,0,0,1-3.64-1.38c-.91-1.06-1.39-2.63-1.39-5.84V36.1h-2.82V33.28h2.82V28.21Z"/><path class="cls-1" d="M263.08,24.66a22.56,22.56,0,0,1,5.41-.62c2.92,0,5.4.62,7.13,2.25a7.31,7.31,0,0,1,2.1,5.5,7.45,7.45,0,0,1-5,7.18v.1c3.73,1,6,4,6,8.23a9.25,9.25,0,0,1-2.3,6.41c-1.82,2.06-4.83,2.92-8.52,2.92a25.17,25.17,0,0,1-4.83-.34Zm3.68,13.21h1.68a5.54,5.54,0,0,0,5.6-5.69c0-3-1.39-5.27-5.31-5.27a6.7,6.7,0,0,0-2,.24Zm0,15.65a9,9,0,0,0,1.87.19c3.83,0,6.32-2.25,6.32-6.41,0-4.45-3.11-6.56-6.56-6.61h-1.63Z"/><path class="cls-1" d="M292.13,56.44,291.89,54h-.15a5.19,5.19,0,0,1-4.59,2.82c-3.11,0-5.5-2.63-5.5-6.6,0-5.79,4.64-8.38,9.85-8.42v-.72c0-3.11-.76-5.27-3.68-5.27A7,7,0,0,0,284,37l-.81-2.58a9.91,9.91,0,0,1,5.4-1.54c4.65,0,6.66,3.07,6.66,8.28v10a38.32,38.32,0,0,0,.23,5.27Zm-.53-12c-1.92,0-6.37.34-6.37,5.36,0,3,1.54,4.12,2.83,4.12,1.62,0,3-1.2,3.44-3.49a5.88,5.88,0,0,0,.1-1.3Z"/><path class="cls-1" d="M300.36,39.26c0-2-.15-4.26-.19-6h3.3l.19,3.63h.09c.77-2.2,2.73-4,4.89-4,.28,0,.52,0,.76,0v3.78a4.59,4.59,0,0,0-.76,0c-2.35,0-4.07,2.15-4.46,4.83a14.88,14.88,0,0,0-.14,2.1V56.44h-3.68Z"/><path class="cls-1" d="M322.89,55.86a7.9,7.9,0,0,1-3.82.86c-5.08,0-8.47-4.06-8.47-11.72,0-6.65,3.35-12.06,9.14-12.06a7.48,7.48,0,0,1,3.25.72l-.72,3a6,6,0,0,0-2.63-.63c-3.68,0-5.36,4.41-5.36,9,0,5.41,2.06,8.66,5.46,8.66a6.39,6.39,0,0,0,2.68-.62Z"/><path class="cls-1" d="M340,44.86c0,9-4.16,12-7.71,12-4.16,0-7.51-3.78-7.51-11.91,0-8.47,3.78-12,7.75-12C336.63,32.89,340,36.77,340,44.86Zm-11.53,0c0,3.83.67,9,4,9,3.15,0,3.78-5.45,3.78-9s-.63-9-3.88-9S328.45,41.32,328.45,44.86Z"/><path class="cls-1" d="M358,23.32V50.89c0,1.58.14,4.21.19,5.55h-3.16l-.24-2.92h-.14a5.34,5.34,0,0,1-4.83,3.3c-3.93,0-6.75-4.26-6.75-11.87,0-8.23,3.4-12.06,7-12.06a4.5,4.5,0,0,1,4.21,2.78h.09V23.32Zm-3.64,18.76c0-.48,0-1-.05-1.53-.23-2.39-1.67-4.5-3.44-4.5-3.06,0-4.12,4.26-4.12,8.9,0,4.88,1.25,8.81,3.93,8.81,1.15,0,2.73-.62,3.54-4a7.67,7.67,0,0,0,.14-1.53Z"/><path class="cls-1" d="M365.77,45.19c.05,7.08,2.82,8.62,5.5,8.62a7.86,7.86,0,0,0,3.83-.91l.58,2.72a11.19,11.19,0,0,1-5.08,1.1c-5.55,0-8.42-4.54-8.42-11.62,0-7.52,3.16-12.21,7.8-12.21s6.61,5,6.61,10.25c0,.86,0,1.48,0,2ZM373,42.47c.1-4.65-1.67-6.7-3.44-6.7-2.39,0-3.64,3.54-3.78,6.7Z"/><path class="cls-1" d="M388.36,24.66a21,21,0,0,1,5.31-.62c3.21,0,5.6.67,7.27,2.3a8.69,8.69,0,0,1,2.25,6.32A8.4,8.4,0,0,1,398,40.93V41c2.4.72,3.64,3,4.36,7.23a45.82,45.82,0,0,0,1.82,8.18h-3.74a42.44,42.44,0,0,1-1.72-8c-.72-4.41-2.1-6.08-5.26-6.08H392V56.44h-3.68ZM392,39.55h1.53c3.54,0,5.89-2.59,5.89-6.46s-1.53-6-5.5-6.08a7.59,7.59,0,0,0-1.92.19Z"/><path class="cls-1" d="M410.23,45.19c0,7.08,2.82,8.62,5.5,8.62a7.86,7.86,0,0,0,3.83-.91l.57,2.72a11.12,11.12,0,0,1-5.07,1.1c-5.55,0-8.42-4.54-8.42-11.62,0-7.52,3.16-12.21,7.8-12.21s6.6,5,6.6,10.25c0,.86,0,1.48-.05,2Zm7.27-2.72c.1-4.65-1.67-6.7-3.45-6.7-2.39,0-3.63,3.54-3.78,6.7Z"/><path class="cls-1" d="M434.15,56.44,433.91,54h-.14a5.2,5.2,0,0,1-4.59,2.82c-3.11,0-5.51-2.63-5.51-6.6,0-5.79,4.64-8.38,9.86-8.42v-.72c0-3.11-.77-5.27-3.68-5.27A7,7,0,0,0,426,37l-.82-2.58a10,10,0,0,1,5.41-1.54c4.64,0,6.65,3.07,6.65,8.28v10a36.74,36.74,0,0,0,.24,5.27Zm-.52-12c-1.92,0-6.37.34-6.37,5.36,0,3,1.53,4.12,2.83,4.12,1.62,0,3-1.2,3.44-3.49a5.88,5.88,0,0,0,.1-1.3Z"/><path class="cls-1" d="M456.36,23.32V50.89c0,1.58.14,4.21.19,5.55h-3.16l-.24-2.92H453a5.35,5.35,0,0,1-4.84,3.3c-3.92,0-6.74-4.26-6.74-11.87,0-8.23,3.39-12.06,7-12.06a4.48,4.48,0,0,1,4.21,2.78h.1V23.32Zm-3.64,18.76c0-.48,0-1-.05-1.53-.24-2.39-1.67-4.5-3.44-4.5-3.07,0-4.12,4.26-4.12,8.9,0,4.88,1.25,8.81,3.93,8.81,1.14,0,2.72-.62,3.54-4a7.67,7.67,0,0,0,.14-1.53Z"/><path class="cls-1" d="M464.11,45.19c.05,7.08,2.82,8.62,5.5,8.62a7.86,7.86,0,0,0,3.83-.91l.57,2.72a11.12,11.12,0,0,1-5.07,1.1c-5.55,0-8.42-4.54-8.42-11.62,0-7.52,3.16-12.21,7.8-12.21s6.6,5,6.6,10.25c0,.86,0,1.48,0,2Zm7.27-2.72c.1-4.65-1.67-6.7-3.44-6.7-2.4,0-3.64,3.54-3.78,6.7Z"/><path class="cls-1" d="M478.85,39.26c0-2-.15-4.26-.19-6H482l.19,3.63h.1c.76-2.2,2.72-4,4.88-4,.28,0,.52,0,.76,0v3.78a4.59,4.59,0,0,0-.76,0c-2.35,0-4.07,2.15-4.45,4.83a13.46,13.46,0,0,0-.15,2.1V56.44h-3.68Z"/><path class="cls-1" d="M92.76,56.69v-34h8.89c6.39,0,9.49,3.18,9.49,9.72V47c0,6.55-3.1,9.73-9.49,9.73Zm3.38-3.35h5.51c3.71,0,6.11-2.27,6.11-5.77V31.77c0-3.5-2.4-5.76-6.11-5.76H96.14Z"/><rect class="cls-1" x="6.63" y="7.44" width="65.12" height="65.12" rx="6"/><path class="cls-2" d="M65.75,7.94a5.51,5.51,0,0,1,5.5,5.5V66.56a5.51,5.51,0,0,1-5.5,5.5H12.63a5.5,5.5,0,0,1-5.5-5.5V13.44a5.5,5.5,0,0,1,5.5-5.5H65.75m0-1H12.63a6.5,6.5,0,0,0-6.5,6.5V66.56a6.5,6.5,0,0,0,6.5,6.5H65.75a6.5,6.5,0,0,0,6.5-6.5V13.44a6.5,6.5,0,0,0-6.5-6.5Z"/><path class="cls-3" d="M26.72,26H19.37V53.73h7.36c5,0,7.84-2.34,7.84-8V34C34.56,28.37,31.7,26,26.72,26ZM31.37,46.2c0,2.91-2.08,4.37-4.65,4.37H22.55V29.18h4.17c2.57,0,4.65,1.46,4.65,4.38Z"/><path class="cls-3" d="M44.5,36a4.21,4.21,0,0,0-3.79,2.18V30.8a4.91,4.91,0,0,1-1.93-.62A5,5,0,0,1,37.31,29h0v2h0V53.69h3.4V51.55c.82,1.61,1.54,2.43,3.15,2.43,3,0,5.5-3.14,5.5-9.33C49.36,39.51,47.57,36,44.5,36ZM43,50.84c-.64,0-1.54-.4-2-2.22A10.24,10.24,0,0,1,40.71,47V43.17a12.53,12.53,0,0,1,.22-1.66c.22-1.14,1-2.25,2-2.25,1.82,0,3,2.66,3,5.88C46,48.64,44.82,50.84,43,50.84Z"/><path class="cls-3" d="M58.22,36.16a4.38,4.38,0,0,0-3.76,2.92h0V36.45h0a5.82,5.82,0,0,1-1.24.86,5.26,5.26,0,0,1-2,.61V53.73h3.25V44.61a7.17,7.17,0,0,1,.14-1.67,4,4,0,0,1,3.66-3A2.66,2.66,0,0,1,59,40v-3.8A4.89,4.89,0,0,0,58.22,36.16Z"/></svg>