<svg xmlns="http://www.w3.org/2000/svg" width="137" height="137" viewBox="0 0 137 137">
  <g id="Group_2002" data-name="Group 2002" transform="translate(22.739 -6.2)">
    <path id="Path_8261" data-name="Path 8261" d="M100.768,143.2H-9.246a13.466,13.466,0,0,1-13.493-13.493V19.693A13.466,13.466,0,0,1-9.246,6.2H100.768a13.467,13.467,0,0,1,13.493,13.493V129.707A13.6,13.6,0,0,1,100.768,143.2Z" transform="translate(0)" fill="#5a626a"/>
    <g id="Group_2001" data-name="Group 2001" transform="translate(3 43.771)">
      <g id="Group_1999" data-name="Group 1999">
        <g id="Group_1998" data-name="Group 1998">
          <g id="Group_1997" data-name="Group 1997">
            <path id="Path_8262" data-name="Path 8262" d="M7.978,26.494H-8.836v61.65H7.978c10.793,0,17.229-5.811,17.229-18.267V44.969C25.207,32.305,18.979,26.494,7.978,26.494ZM18.357,70.915c0,6.435-4.567,10.171-10.171,10.171H-1.571V33.551H8.185c5.6,0,10.171,3.736,10.171,10.171Z" transform="translate(8.836 -26.494)" fill="#fff"/>
          </g>
        </g>
      </g>
      <g id="Group_2000" data-name="Group 2000" transform="translate(39.439 22.833)">
        <path id="Path_8263" data-name="Path 8263" d="M47.089,54.812c0-8.3-2.907-15.985-10.379-15.985-7.265,0-12.247,7.267-12.247,19.1,0,11,4.565,18.475,13.285,18.475,2.9,0,6.019-.207,7.887-1.453L44.6,68.926a12.266,12.266,0,0,1-6.021,1.453c-4.151,0-8.511-1.039-8.511-12.247H46.882A16.808,16.808,0,0,0,47.089,54.812ZM30.068,53.773c.207-4.982,2.075-10.586,6.021-10.586,2.7,0,5.6,3.321,5.4,10.586Z" transform="translate(-2.253 -38.827)" fill="#fff"/>
        <path id="Path_8264" data-name="Path 8264" d="M12.467,57.716c0,11.832,5.6,18.267,14.115,18.267A13.043,13.043,0,0,0,32.6,74.738l-.831-6.226a7.115,7.115,0,0,1-3.736.829c-4.775,0-9.133-4.567-9.133-12.039,0-6.643,3.943-12.039,9.133-12.039a3.083,3.083,0,0,1,1.453.207,9.179,9.179,0,0,1,1.244-3.321,7.977,7.977,0,0,1,2.285-2.283h0a10.834,10.834,0,0,0-5.189-1.039C18.278,38.827,12.467,46.923,12.467,57.716Z" transform="translate(-12.467 -38.827)" fill="#fff"/>
      </g>
    </g>
  </g>
</svg>
