<?xml version="1.0" encoding="utf-8"?>
<!-- Generator: Adobe Illustrator 25.2.2, SVG Export Plug-In . SVG Version: 6.00 Build 0)  -->
<svg version="1.1" id="Layer_1" xmlns="http://www.w3.org/2000/svg" xmlns:xlink="http://www.w3.org/1999/xlink" x="0px" y="0px"
	 viewBox="0 0 540.4 84.1" style="enable-background:new 0 0 540.4 84.1;" xml:space="preserve">
<style type="text/css">
	.st0{fill:#323234;}
	.st1{enable-background:new    ;}
	.st2{fill:#5A626A;}
	.st3{fill:#FFFFFF;}
</style>
<g>
	<g>
		<g>
			<path class="st0" d="M94.2,57.5v-34h8.9c6.4,0,9.5,3.2,9.5,9.7v14.6c0,6.5-3.1,9.7-9.5,9.7C103.1,57.5,94.2,57.5,94.2,57.5z
				 M97.6,54.1h5.5c3.7,0,6.1-2.3,6.1-5.8V32.6c0-3.5-2.4-5.8-6.1-5.8h-5.5V54.1z"/>
		</g>
	</g>
	<g class="st1">
		<path class="st0" d="M120.2,34.1l3.1,13.3c0.4,1.8,0.7,3.3,1,4.8h0.1c0.2-1.3,0.6-3.1,1-4.7l2.7-13.3h3.6l-3.8,14.9
			c-1.4,5.8-3,11.4-5.7,14.9c-1.6,2.1-3.3,3.2-4.2,3.5l-1.3-3.2c1.1-0.6,2.2-1.6,3.2-2.9c1-1.2,1.7-2.8,2.1-3.9
			c0.2-0.6,0.2-0.8,0.2-1.1c0-0.3,0-0.6-0.1-0.9l-5.8-21.4H120.2z"/>
		<path class="st0" d="M134.8,40c0-2.7-0.1-4.1-0.2-6h3.2l0.2,2.8h0.1c1-1.9,2.9-3.2,5.3-3.2c3.2,0,5.6,2.4,5.6,8v15.5h-3.7V42.3
			c0-2.7-0.5-5.5-3.2-5.5c-1.5,0-3,1.3-3.5,3.8c-0.1,0.6-0.1,1.3-0.1,2.1v14.6h-3.7V40z"/>
		<path class="st0" d="M163.3,57.2l-0.2-2.4h-0.1c-1,1.8-2.6,2.8-4.6,2.8c-3.1,0-5.5-2.6-5.5-6.6c0-5.8,4.6-8.4,9.8-8.4v-0.7
			c0-3.1-0.8-5.3-3.7-5.3c-1.4,0-2.7,0.5-3.8,1.2l-0.8-2.6c1-0.7,3.1-1.5,5.4-1.5c4.6,0,6.6,3.1,6.6,8.3v10c0,1.8,0,3.8,0.2,5.3
			H163.3z M162.8,45.3c-1.9,0-6.4,0.3-6.4,5.4c0,3,1.5,4.1,2.8,4.1c1.6,0,3-1.2,3.4-3.5c0.1-0.4,0.1-0.9,0.1-1.3V45.3z"/>
		<path class="st0" d="M171.6,40c0-2.7-0.1-4.1-0.2-6h3.2l0.2,2.9h0.1c1-1.9,2.8-3.2,5.2-3.2c2.1,0,4,1.1,4.8,3.5h0.1
			c0.6-1.1,1.4-2.1,2.3-2.6c0.9-0.6,2-0.9,3.2-0.9c3.1,0,5.5,2.3,5.5,8.2v15.3h-3.6V42.7c0-3-0.4-5.9-3.2-5.9
			c-1.5,0-2.9,1.3-3.4,3.4c-0.1,0.6-0.1,1.3-0.1,2.1v14.9H182V42.1c0-2.6-0.5-5.3-3.2-5.3c-1.5,0-3,1.3-3.4,3.7
			c-0.1,0.6-0.1,1.3-0.1,2v14.7h-3.6V40z"/>
		<path class="st0" d="M200.6,53.4c0.8,0.5,2.2,1.2,3.7,1.2c2.1,0,3.4-1.3,3.4-3.3c0-1.8-0.6-3-3-4.5c-3-2-4.6-3.9-4.6-6.6
			c0-3.7,2.8-6.4,6.4-6.4c1.8,0,3.2,0.6,4.2,1.2l-1,2.8c-0.9-0.6-1.9-1-3.1-1c-2,0-3,1.4-3,2.9c0,1.6,0.6,2.4,2.9,4
			c2.7,1.7,4.8,3.8,4.8,7c0,4.6-3.2,6.9-6.9,6.9c-1.7,0-3.6-0.5-4.6-1.3L200.6,53.4z"/>
		<path class="st0" d="M229.2,45.6c0,8.9-4.2,11.9-7.7,11.9c-4.2,0-7.5-3.8-7.5-11.9c0-8.5,3.8-12,7.7-12
			C225.8,33.7,229.2,37.6,229.2,45.6z M217.7,45.6c0,3.8,0.7,9,4,9c3.2,0,3.8-5.4,3.8-9c0-3.5-0.6-9-3.9-9
			C218.3,36.7,217.7,42.1,217.7,45.6z"/>
	</g>
	<g class="st1">
		<path class="st0" d="M234,57.2V36.9h-2.9v-2.8h2.9v-1.4c0-2.5,0.4-5.1,2.1-7c1.3-1.5,3.2-2,4.6-2c1.2,0,2.2,0.2,2.9,0.6l-0.6,2.9
			c-0.4-0.2-1.1-0.4-2-0.4c-2.6,0-3.2,2.8-3.2,5.8v1.4h4.2v2.8h-4.2v20.3H234z"/>
	</g>
	<g class="st1">
		<path class="st0" d="M248.9,28v6.1h4.4v2.8h-4.4v13.7c0,3,1.1,3.8,2.4,3.8c0.6,0,1.1,0,1.5-0.1l0.1,2.8c-0.7,0.2-1.5,0.4-2.7,0.4
			c-1.4,0-2.7-0.4-3.6-1.4c-0.9-1.1-1.4-2.6-1.4-5.8V36.9h-2.8v-2.8h2.8V29L248.9,28z"/>
	</g>
	<g class="st1">
		<path class="st0" d="M278.4,56.6c-1,0.5-2.6,0.9-4.6,0.9c-6.3,0-10.8-5.1-10.8-16c0-12.7,6.3-16.8,11.4-16.8c2,0,3.3,0.4,4,0.8
			l-0.8,3.1c-0.8-0.3-1.6-0.7-3.2-0.7c-3.4,0-7.5,3.3-7.5,13.2s3.6,13.1,7.5,13.1c1.4,0,2.6-0.3,3.4-0.7L278.4,56.6z"/>
	</g>
	<g class="st1">
		<path class="st0" d="M290.6,57.2l-0.2-2.4h-0.1c-1,1.8-2.6,2.8-4.6,2.8c-3.1,0-5.5-2.6-5.5-6.6c0-5.8,4.6-8.4,9.8-8.4v-0.7
			c0-3.1-0.8-5.3-3.7-5.3c-1.4,0-2.7,0.5-3.8,1.2l-0.8-2.6c1-0.7,3.1-1.5,5.4-1.5c4.6,0,6.6,3.1,6.6,8.3v10c0,1.8,0,3.8,0.2,5.3
			H290.6z M290.1,45.3c-1.9,0-6.4,0.3-6.4,5.4c0,3,1.5,4.1,2.8,4.1c1.6,0,3-1.2,3.4-3.5c0.1-0.4,0.1-0.9,0.1-1.3V45.3z"/>
		<path class="st0" d="M298.9,40c0-2.7-0.1-4.1-0.2-6h3.2l0.2,2.9h0.1c1-1.9,2.8-3.2,5.2-3.2c2.2,0,4,1.1,4.8,3.5h0.1
			c0.6-1.1,1.4-2.1,2.3-2.6c0.9-0.6,2-0.9,3.2-0.9c3.1,0,5.5,2.3,5.5,8.2v15.3h-3.6V42.7c0-3-0.4-5.9-3.2-5.9
			c-1.5,0-2.9,1.3-3.4,3.4c-0.1,0.6-0.1,1.3-0.1,2.1v14.9h-3.6V42.1c0-2.6-0.5-5.3-3.2-5.3c-1.5,0-3,1.3-3.4,3.7
			c-0.1,0.6-0.1,1.3-0.1,2v14.7h-3.6V40z"/>
		<path class="st0" d="M331.1,46c0,7.1,2.8,8.6,5.5,8.6c1.6,0,2.9-0.4,3.8-0.9l0.6,2.7c-1.3,0.7-3.2,1.1-5.1,1.1
			c-5.5,0-8.4-4.5-8.4-11.6c0-7.5,3.2-12.2,7.8-12.2c4.7,0,6.6,5,6.6,10.2c0,0.9,0,1.5,0,2.1H331.1z M338.3,43.3
			c0.1-4.6-1.7-6.7-3.4-6.7c-2.4,0-3.6,3.5-3.8,6.7H338.3z"/>
	</g>
	<g class="st1">
		<path class="st0" d="M345.7,40c0-2-0.1-4.3-0.2-6h3.3l0.2,3.6h0.1c0.8-2.2,2.7-4,4.9-4c0.3,0,0.5,0,0.8,0v3.8c-0.2,0-0.5,0-0.8,0
			c-2.3,0-4.1,2.2-4.4,4.8c-0.1,0.6-0.1,1.3-0.1,2.1v12.8h-3.7V40z"/>
	</g>
	<g class="st1">
		<path class="st0" d="M366.5,57.2l-0.2-2.4h-0.1c-1,1.8-2.6,2.8-4.6,2.8c-3.1,0-5.5-2.6-5.5-6.6c0-5.8,4.6-8.4,9.8-8.4v-0.7
			c0-3.1-0.8-5.3-3.7-5.3c-1.4,0-2.7,0.5-3.8,1.2l-0.8-2.6c1-0.7,3.1-1.5,5.4-1.5c4.6,0,6.6,3.1,6.6,8.3v10c0,1.8,0,3.8,0.2,5.3
			H366.5z M366,45.3c-1.9,0-6.4,0.3-6.4,5.4c0,3,1.5,4.1,2.8,4.1c1.6,0,3-1.2,3.4-3.5c0.1-0.4,0.1-0.9,0.1-1.3V45.3z"/>
	</g>
	<g class="st1">
		<path class="st0" d="M394.3,41.9h-8.1V54h9.2v3.2h-12.9V25h12.3v3.2h-8.6v10.6h8.1V41.9z"/>
	</g>
	<g class="st1">
		<path class="st0" d="M399,40c0-2.7-0.1-4.1-0.2-6h3.2l0.2,2.8h0.1c1-1.9,2.9-3.2,5.3-3.2c3.2,0,5.6,2.4,5.6,8v15.5h-3.7V42.3
			c0-2.7-0.5-5.5-3.2-5.5c-1.5,0-3,1.3-3.5,3.8c-0.1,0.6-0.1,1.3-0.1,2.1v14.6H399V40z"/>
		<path class="st0" d="M418.3,24.1h3.7v12.4h0.1c0.5-0.8,1.2-1.5,1.9-2c0.9-0.5,1.8-0.9,3.1-0.9c2.9,0,5.4,2.3,5.4,8.2v15.3h-3.7
			V42.3c0-2.8-0.6-5.5-3.1-5.5c-1.7,0-3,1.2-3.6,3.7c-0.1,0.5-0.1,1.2-0.1,1.8v15h-3.7V24.1z"/>
		<path class="st0" d="M446.8,57.2l-0.2-2.4h-0.1c-1,1.8-2.6,2.8-4.6,2.8c-3.1,0-5.5-2.6-5.5-6.6c0-5.8,4.6-8.4,9.8-8.4v-0.7
			c0-3.1-0.8-5.3-3.7-5.3c-1.4,0-2.7,0.5-3.8,1.2l-0.8-2.6c1-0.7,3.1-1.5,5.4-1.5c4.6,0,6.6,3.1,6.6,8.3v10c0,1.8,0,3.8,0.2,5.3
			H446.8z M446.3,45.3c-1.9,0-6.4,0.3-6.4,5.4c0,3,1.5,4.1,2.8,4.1c1.6,0,3-1.2,3.4-3.5c0.1-0.4,0.1-0.9,0.1-1.3V45.3z"/>
		<path class="st0" d="M455.1,40c0-2.7-0.1-4.1-0.2-6h3.2l0.2,2.8h0.1c1-1.9,2.9-3.2,5.3-3.2c3.2,0,5.6,2.4,5.6,8v15.5h-3.7V42.3
			c0-2.7-0.5-5.5-3.2-5.5c-1.5,0-3,1.3-3.5,3.8c-0.1,0.6-0.1,1.3-0.1,2.1v14.6h-3.7V40z"/>
	</g>
	<g class="st1">
		<path class="st0" d="M485.7,56.6c-0.8,0.5-2.2,0.9-3.8,0.9c-5.1,0-8.5-4.1-8.5-11.7c0-6.6,3.3-12,9.1-12c1.2,0,2.6,0.3,3.2,0.7
			l-0.7,3c-0.5-0.2-1.4-0.6-2.6-0.6c-3.7,0-5.4,4.4-5.4,8.9c0,5.4,2.1,8.6,5.4,8.6c1,0,1.8-0.2,2.7-0.6L485.7,56.6z"/>
	</g>
	<g class="st1">
		<path class="st0" d="M491.2,46c0,7.1,2.8,8.6,5.5,8.6c1.6,0,2.9-0.4,3.8-0.9l0.6,2.7c-1.3,0.7-3.2,1.1-5.1,1.1
			c-5.5,0-8.4-4.5-8.4-11.6c0-7.5,3.2-12.2,7.8-12.2c4.7,0,6.6,5,6.6,10.2c0,0.9,0,1.5,0,2.1H491.2z M498.4,43.3
			c0.1-4.6-1.7-6.7-3.4-6.7c-2.4,0-3.6,3.5-3.8,6.7H498.4z"/>
		<path class="st0" d="M505.9,40c0-2-0.1-4.3-0.2-6h3.3l0.2,3.6h0.1c0.8-2.2,2.7-4,4.9-4c0.3,0,0.5,0,0.8,0v3.8c-0.2,0-0.5,0-0.8,0
			c-2.3,0-4.1,2.2-4.4,4.8c-0.1,0.6-0.1,1.3-0.1,2.1v12.8h-3.7V40z"/>
	</g>
</g>
<g>
	<path id="XMLID_518_" class="st2" d="M67.5,76.2h-53c-3.6,0-6.5-2.9-6.5-6.5v-53c0-3.6,2.9-6.5,6.5-6.5h53c3.6,0,6.5,2.9,6.5,6.5
		v53C74,73.3,71,76.2,67.5,76.2z"/>
	<g>
		<g>
			<g id="XMLID_10_">
				<g>
					<path class="st3" d="M28.5,28.3h-8.1V58h8.1c5.2,0,8.3-2.8,8.3-8.8v-12C36.8,31.1,33.8,28.3,28.5,28.3z M33.5,49.7
						c0,3.1-2.2,4.9-4.9,4.9h-4.7V31.7h4.7c2.7,0,4.9,1.8,4.9,4.9C33.5,36.6,33.5,49.7,33.5,49.7z"/>
				</g>
			</g>
		</g>
		<g>
			<path class="st3" d="M61,47c0-4-1.4-7.7-5-7.7c-3.5,0-5.9,3.5-5.9,9.2c0,5.3,2.2,8.9,6.4,8.9c1.4,0,2.9-0.1,3.8-0.7l-0.5-2.9
				c-0.7,0.4-1.7,0.7-2.9,0.7c-2,0-4.1-0.5-4.1-5.9h8.1C61,48.1,61,47.6,61,47z M52.8,46.5c0.1-2.4,1-5.1,2.9-5.1
				c1.3,0,2.7,1.6,2.6,5.1H52.8z"/>
			<path class="st3" d="M39.4,48.4c0,5.7,2.7,8.8,6.8,8.8c1.3,0,2.4-0.3,2.9-0.6l-0.4-3c-0.5,0.3-1.1,0.4-1.8,0.4
				c-2.3,0-4.4-2.2-4.4-5.8c0-3.2,1.9-5.8,4.4-5.8c0.3,0,0.5,0,0.7,0.1c0.1-0.6,0.3-1.1,0.6-1.6s0.7-0.8,1.1-1.1l0,0
				c-0.5-0.3-1.4-0.5-2.5-0.5C42.2,39.3,39.4,43.2,39.4,48.4z"/>
		</g>
	</g>
</g>
</svg>
