<svg xmlns="http://www.w3.org/2000/svg" width="136.484" height="136.484" viewBox="0 0 136.484 136.484">
  <g id="Group_1869" data-name="Group 1869" transform="translate(0 0)">
    <g id="Group_1864" data-name="Group 1864" transform="translate(0 0)">
      <path id="Path_6056" data-name="Path 6056" d="M13.417,0H123.067a13.417,13.417,0,0,1,13.417,13.417V123.067a13.417,13.417,0,0,1-13.417,13.417H13.417A13.417,13.417,0,0,1,0,123.067V13.417A13.417,13.417,0,0,1,13.417,0Z" fill="#59626a"/>
      <g id="Group_1863" data-name="Group 1863" transform="translate(33.732 39.385)">
        <path id="Path_6053" data-name="Path 6053" d="M2337.076,148.538l-16.1,0v57.716l16.1-.043c10.41,0,15.915-4.843,15.915-16.664v-24.3C2352.991,153.42,2347.486,148.538,2337.076,148.538Zm9.31,42.019c0,6.069-5.307,9.111-10.674,9.111h-8.131V155.117h8.131c5.369,0,10.674,3.043,10.674,9.114Z" transform="translate(-2320.973 -148.536)" fill="#fff"/>
        <path id="Path_6054" data-name="Path 6054" d="M2360.737,159.941c-2.783,0-5.993,2.215-7.313,5.666l-.077.01V160.5a10.81,10.81,0,0,1-2.4,1.674,10.433,10.433,0,0,1-3.92,1.193V194.1h6.32V176.364a13.981,13.981,0,0,1,.279-3.243,7.766,7.766,0,0,1,7.112-5.8,5.019,5.019,0,0,1,1.531.138v-7.384A8.173,8.173,0,0,0,2360.737,159.941Z" transform="translate(-2293.247 -136.399)" fill="#fff"/>
        <path id="Path_6055" data-name="Path 6055" d="M2348.211,195.448c-1.615,0-2.553-1.338-2.553-3.039V152.966a9.079,9.079,0,0,1-2.219,1.492,10.766,10.766,0,0,1-4.391,1.111l-.024,38.359c0,4.983,2.44,7.594,7.656,7.594a11.79,11.79,0,0,0,3.573-.553v-5.522Z" transform="translate(-2301.764 -143.821)" fill="#fff"/>
      </g>
    </g>
  </g>
</svg>
