<?xml version="1.0" encoding="utf-8"?>
<!-- Generator: Adobe Illustrator 25.2.2, SVG Export Plug-In . SVG Version: 6.00 Build 0)  -->
<svg version="1.1" id="Layer_1" xmlns="http://www.w3.org/2000/svg" xmlns:xlink="http://www.w3.org/1999/xlink" x="0px" y="0px"
	 viewBox="0 0 534.7 80" style="enable-background:new 0 0 534.7 80;" xml:space="preserve">
<style type="text/css">
	.st0{fill:#323234;}
	.st1{fill:#333334;}
	.st2{fill:#5A636B;}
	.st3{fill:#FFFFFF;}
</style>
<path class="st0" d="M93.1,56.7v-34h8.9c6.4,0,9.5,3.2,9.5,9.7V47c0,6.5-3.1,9.7-9.5,9.7H93.1z M96.5,53.3h5.5
	c3.7,0,6.1-2.3,6.1-5.8V31.8c0-3.5-2.4-5.8-6.1-5.8h-5.5V53.3z"/>
<path class="st1" d="M119.1,32.8l3.1,13.4c0.4,1.8,0.7,3.4,1,4.8h0.1c0.2-1.3,0.6-3.1,1-4.8l2.8-13.4h3.7l-3.8,15
	c-1.4,5.9-3,11.5-5.8,15c-1.1,1.5-2.6,2.7-4.2,3.6l-1.3-3.2c1.3-0.8,2.4-1.7,3.3-2.9s1.6-2.5,2.1-3.9c0.1-0.4,0.2-0.8,0.2-1.2
	c0-0.3,0-0.6-0.1-0.9l-5.9-21.5L119.1,32.8z"/>
<path class="st1" d="M133.8,38.8c0-2.7-0.1-4.1-0.2-6h3.2l0.2,2.8h0.1c1-2,3.1-3.2,5.3-3.2c3.2,0,5.6,2.4,5.6,8v15.7h-3.7V41
	c0-2.8-0.5-5.5-3.2-5.5c-1.5,0-3,1.3-3.5,3.8c-0.1,0.7-0.2,1.4-0.1,2.1v14.7h-3.7L133.8,38.8L133.8,38.8z"/>
<path class="st1" d="M162.5,56.1l-0.2-2.5h-0.1c-0.9,1.7-2.7,2.8-4.6,2.8c-3.1,0-5.5-2.7-5.5-6.7c0-5.8,4.7-8.4,9.9-8.5v-0.7
	c0-3.1-0.8-5.3-3.7-5.3c-1.4,0-2.7,0.4-3.9,1.2l-0.8-2.6c1.6-1,3.5-1.6,5.4-1.5c4.7,0,6.7,3.1,6.7,8.3v10.1c0,1.8,0,3.5,0.2,5.3
	h-3.4V56.1z M162,44c-1.9,0-6.4,0.3-6.4,5.4c0,3,1.6,4.1,2.9,4.1c1.6,0,3-1.2,3.5-3.5c0.1-0.4,0.1-0.9,0.1-1.3L162,44z"/>
<path class="st1" d="M170.8,38.8c0-2.7-0.1-4.1-0.2-6h3.2l0.2,2.9h0.1c1-2,3-3.3,5.2-3.3c2.3-0.1,4.3,1.4,4.9,3.6h0.1
	c0.6-1.1,1.3-2,2.3-2.7c1-0.6,2.1-0.9,3.2-0.9c3.1,0,5.6,2.3,5.6,8.2V56h-3.7V41.5c0-3-0.4-6-3.3-6c-1.5,0-2.9,1.3-3.4,3.5
	c-0.1,0.7-0.2,1.4-0.1,2.1v15h-3.7V40.8c0-2.6-0.5-5.3-3.2-5.3c-1.5,0-3,1.3-3.5,3.8c-0.1,0.7-0.2,1.3-0.1,2v14.8h-3.7L170.8,38.8z"
	/>
<path class="st1" d="M200.1,52.2c1.1,0.7,2.4,1.2,3.8,1.2c1.7,0.2,3.3-1.1,3.4-2.9c0-0.2,0-0.4,0-0.6c0-1.8-0.6-3-3-4.6
	c-3-2-4.7-4-4.7-6.7c-0.1-3.5,2.7-6.3,6.1-6.4c0.1,0,0.2,0,0.3,0c1.5,0,2.9,0.4,4.2,1.2l-1,2.8c-0.9-0.6-2-1-3.1-1
	c-1.6-0.1-2.9,1.1-3,2.7c0,0.1,0,0.1,0,0.2c0,1.6,0.6,2.5,2.9,4c2.7,1.7,4.8,3.8,4.8,7.1c0,4.7-3.2,6.9-7,6.9
	c-1.7,0-3.3-0.4-4.7-1.4L200.1,52.2z"/>
<path class="st1" d="M228.9,44.4c0,9-4.2,12-7.8,12c-4.2,0-7.6-3.8-7.6-12c0-8.5,3.8-12.1,7.8-12.1S228.9,36.3,228.9,44.4z
	 M217.3,44.4c0,3.8,0.7,9.1,4,9.1c3.2,0,3.8-5.5,3.8-9.1s-0.6-9.1-3.9-9.1S217.3,40.8,217.3,44.4z"/>
<path class="st1" d="M233.8,56.1V35.6h-2.9v-2.8h2.9v-1.4c0-2.5,0.4-5.1,2.1-7c1.2-1.3,2.9-2,4.7-2c1,0,2,0.2,2.9,0.6l-0.6,2.9
	c-0.6-0.3-1.3-0.4-2-0.4c-2.6,0-3.3,2.8-3.3,5.9v1.4h4.2v2.8h-4.2v20.5H233.8z"/>
<path class="st1" d="M248.8,26.6v6.2h4.5v2.8h-4.5v13.8c0,3,1.1,3.8,2.5,3.8c0.5,0,1,0,1.5-0.1l0.1,2.9c-0.9,0.3-1.8,0.4-2.8,0.4
	c-1.4,0.1-2.7-0.4-3.7-1.4c-0.9-1.1-1.4-2.7-1.4-5.9V35.6h-2.9v-2.8h2.9v-5.1L248.8,26.6z"/>
<path class="st1" d="M264.4,23.6h3.7v29.3h9.1V56h-12.9L264.4,23.6L264.4,23.6z"/>
<path class="st1" d="M289.7,56.1l-0.2-2.5h-0.1c-0.9,1.7-2.7,2.8-4.6,2.8c-3.1,0-5.5-2.7-5.5-6.7c0-5.8,4.7-8.4,9.9-8.5v-0.7
	c0-3.1-0.8-5.3-3.7-5.3c-1.4,0-2.7,0.4-3.9,1.2l-0.8-2.6c1.6-1,3.5-1.6,5.4-1.5c4.7,0,6.7,3.1,6.7,8.3v10.1c0,1.8,0,3.5,0.2,5.3
	h-3.4V56.1z M289.2,44.1c-1.9,0-6.4,0.3-6.4,5.4c0,3,1.5,4.1,2.8,4.1c1.6,0,3-1.2,3.5-3.5c0.1-0.4,0.1-0.9,0.1-1.3V44.1z"/>
<path class="st1" d="M297.8,56.1c0-1.3,0.2-4,0.2-5.6V22.7h3.7v12.8h0.1c0.8-1.9,2.8-3.2,4.9-3.1c3.6,0,6.4,4.2,6.4,11.8
	c0,8.4-3.5,12.3-7.1,12.3c-2.5,0-3.7-1.5-4.6-3.4h-0.1l-0.2,3H297.8z M301.7,47.8c0,0.5,0,1,0.1,1.4c0.9,3.5,2.5,4.1,3.5,4.1
	c3,0,4-4,4-9c0-4.7-1.1-8.8-4.1-8.8c-1.7,0-3.2,2.2-3.5,4.1c-0.1,0.5-0.1,1.1-0.1,1.6L301.7,47.8z"/>
<path class="st1" d="M319.9,44.8c0,7.1,2.8,8.7,5.5,8.7c1.3,0,2.7-0.3,3.9-0.9l0.6,2.8c-1.6,0.8-3.3,1.1-5.1,1.1
	c-5.6,0-8.5-4.6-8.5-11.7c0-7.6,3.2-12.3,7.9-12.3s6.6,5,6.6,10.3c0,0.9,0,1.5,0,2.1L319.9,44.8L319.9,44.8z M327.2,42
	c0.1-4.7-1.7-6.7-3.5-6.7c-2.4,0-3.7,3.6-3.8,6.7H327.2z"/>
<path class="st1" d="M334.8,22.7h3.7V56h-3.7V22.7z"/>
<path class="st1" d="M351.8,24.1c1.7-0.4,3.5-0.6,5.4-0.6c3.2,0,5.6,0.7,7.3,2.3c1.6,1.7,2.4,4,2.3,6.4c0.2,3.6-1.9,6.9-5.2,8.3v0.1
	c2.4,0.7,3.7,3,4.4,7.3c0.4,2.8,1,5.5,1.8,8.2H364c-0.5-1-1.1-4-1.7-8c-0.7-4.4-2.1-6.1-5.3-6.1h-1.4v14.1h-3.7L351.8,24.1z
	 M355.5,39.1h1.5c3.6,0,5.9-2.6,5.9-6.5s-1.5-6.1-5.5-6.1c-0.6,0-1.3,0-1.9,0.2V39.1z"/>
<path class="st1" d="M373.8,44.8c0,7.1,2.8,8.7,5.5,8.7c1.3,0,2.7-0.3,3.9-0.9l0.6,2.8c-1.6,0.8-3.3,1.1-5.1,1.1
	c-5.6,0-8.5-4.6-8.5-11.7c0-7.6,3.2-12.3,7.9-12.3s6.6,5,6.6,10.3c0,0.9,0,1.5,0,2.1L373.8,44.8L373.8,44.8z M381.1,42
	c0.1-4.7-1.7-6.7-3.5-6.7c-2.4,0-3.7,3.6-3.8,6.7H381.1z"/>
<path class="st1" d="M400.1,55.5c-1.2,0.6-2.5,0.9-3.9,0.9c-5.1,0-8.5-4.1-8.5-11.8c0-6.7,3.4-12.1,9.2-12.1c1.1,0,2.3,0.2,3.3,0.7
	l-0.7,3c-0.8-0.4-1.7-0.6-2.6-0.6c-3.7,0-5.4,4.4-5.4,9c0,5.5,2.1,8.7,5.5,8.7c0.9,0,1.9-0.2,2.7-0.6L400.1,55.5z"/>
<path class="st1" d="M417.3,44.4c0,9-4.2,12-7.8,12c-4.2,0-7.6-3.8-7.6-12c0-8.5,3.8-12.1,7.8-12.1S417.3,36.3,417.3,44.4z
	 M405.7,44.4c0,3.8,0.7,9.1,4,9.1c3.2,0,3.8-5.5,3.8-9.1s-0.6-9.1-3.9-9.1S405.7,40.8,405.7,44.4L405.7,44.4z"/>
<path class="st1" d="M435.7,32.8c0,1.6-0.2,3.7-0.2,7.3v13c0,6.1-0.8,8.4-2.3,10.1c-1.6,1.7-3.8,2.6-6.2,2.6c-1.8,0-3.5-0.4-5.1-1.2
	l0.9-2.9c1.3,0.7,2.8,1,4.3,1c2.9,0,4.8-1.8,4.8-7.1v-2.3h-0.1c-0.8,1.8-2.6,2.9-4.5,2.8c-4.1,0-6.8-4.7-6.8-11.5
	c0-8.6,3.9-12.1,7.3-12.1c1.9,0,3.7,1.2,4.3,3h0.1l0.2-2.7H435.7z M431.8,40.8c0-0.6-0.1-1.1-0.2-1.7c-0.4-1.6-1.2-3.6-3.4-3.6
	c-2.7,0-4.1,3.6-4.1,8.8c0,6,1.9,8.7,4.1,8.7c1.1,0,2.6-0.5,3.3-3.3c0.2-0.7,0.3-1.4,0.2-2.1L431.8,40.8z"/>
<path class="st1" d="M440.6,38.8c0-2.7-0.1-4.1-0.2-6h3.2l0.2,2.8h0.1c1-2,3.1-3.2,5.4-3.2c3.2,0,5.6,2.4,5.6,8v15.7h-3.7V41
	c0-2.8-0.5-5.5-3.2-5.5c-1.5,0-3,1.3-3.5,3.8c-0.1,0.7-0.1,1.4-0.1,2.1v14.7h-3.7L440.6,38.8z"/>
<path class="st1" d="M464.1,26.7c0.1,1.2-0.7,2.3-1.9,2.4c-0.1,0-0.2,0-0.4,0c-1.2,0-2.2-1-2.1-2.2c0-0.1,0-0.1,0-0.2
	c-0.1-1.2,0.8-2.3,2-2.4h0.1c1.2,0,2.2,0.9,2.2,2.1C464.1,26.5,464.1,26.6,464.1,26.7z M460.1,56.1V32.8h3.7v23.3H460.1z"/>
<path class="st1" d="M473.5,26.6v6.2h4.5v2.8h-4.5v13.8c0,3,1.1,3.8,2.5,3.8c0.5,0,1,0,1.5-0.1l0.1,2.8c-0.9,0.3-1.8,0.4-2.8,0.4
	c-1.4,0.1-2.7-0.4-3.7-1.3c-0.9-1.1-1.4-2.7-1.4-5.9V35.6H467v-2.8h2.9v-5.1L473.5,26.6z"/>
<path class="st1" d="M485.3,26.7c0.1,1.2-0.8,2.3-2,2.3c-1.2,0.1-2.3-0.8-2.3-2c0-0.1,0-0.2,0-0.3c-0.1-1.2,0.8-2.3,2-2.4h0.1
	c1.2,0,2.2,0.9,2.2,2.1C485.3,26.5,485.3,26.6,485.3,26.7z M481.3,56.1V32.8h3.7v23.3H481.3z"/>
<path class="st1" d="M504.4,44.4c0,9-4.2,12-7.8,12c-4.2,0-7.6-3.8-7.6-12c0-8.5,3.8-12.1,7.8-12.1S504.4,36.3,504.4,44.4z
	 M492.8,44.4c0,3.8,0.7,9.1,4,9.1c3.2,0,3.8-5.5,3.8-9.1s-0.6-9.1-3.9-9.1S492.8,40.8,492.8,44.4z"/>
<path class="st1" d="M508.6,38.8c0-2.7-0.1-4.1-0.2-6h3.2l0.2,2.8h0.1c1-2,3.1-3.2,5.3-3.2c3.2,0,5.6,2.4,5.6,8v15.7h-3.7V41
	c0-2.8-0.5-5.5-3.2-5.5c-1.5,0-3,1.3-3.5,3.8c-0.1,0.7-0.2,1.4-0.2,2.1v14.7h-3.7L508.6,38.8z"/>
<path class="st2" d="M13,6.9h53.1c3.6,0,6.5,2.9,6.5,6.5v53.1c0,3.6-2.9,6.5-6.5,6.5H13c-3.6,0-6.5-2.9-6.5-6.5V13.4
	C6.5,9.9,9.4,6.9,13,6.9z"/>
<path class="st3" d="M30.6,26h-7.8v28h7.8c5,0,7.7-2.3,7.7-8.1V34.1C38.3,28.4,35.7,26,30.6,26z M35.2,46.4c0,2.9-2.6,4.4-5.2,4.4
	h-4V29.2h4c2.6,0,5.2,1.5,5.2,4.4V46.4z"/>
<path class="st3" d="M55.5,37.4c-1.6,0.1-3,1.2-3.5,2.8l0,0v-2.5c-0.4,0.3-0.7,0.6-1.2,0.8c-0.6,0.3-1.2,0.5-1.9,0.6V54H52v-8.6
	c0-0.5,0-1.1,0.1-1.6c0.4-1.6,1.8-2.7,3.4-2.8c0.2,0,0.5,0,0.7,0.1v-3.6C56,37.4,55.8,37.4,55.5,37.4z"/>
<path class="st3" d="M45.3,51c-0.7,0-1.3-0.6-1.2-1.4v-0.1v-19c-0.3,0.3-0.7,0.5-1.1,0.7c-0.7,0.3-1.4,0.5-2.1,0.5v18.6
	c0,2.4,1.2,3.7,3.7,3.7c0.6,0,1.2-0.1,1.7-0.3V51H45.3z"/>
</svg>
