<?xml version="1.0" encoding="utf-8"?>
<!-- Generator: Adobe Illustrator 25.4.1, SVG Export Plug-In . SVG Version: 6.00 Build 0)  -->
<svg version="1.1" id="Layer_1" xmlns="http://www.w3.org/2000/svg" xmlns:xlink="http://www.w3.org/1999/xlink" x="0px" y="0px"
	 viewBox="0 0 345 45" style="enable-background:new 0 0 345 45;" xml:space="preserve">
<style type="text/css">
	.st0{fill:#FFFFFF;}
	.st1{fill:#5A636A;}
	.st2{enable-background:new    ;}
</style>
<g>
	<g>
		<g>
			<path class="st0" d="M59.9,33.9V10.7H66c4.4,0,6.5,2.2,6.5,6.6v9.9c0,4.5-2.1,6.6-6.5,6.6h-6.1V33.9z M62.2,31.6H66
				c2.5,0,4.2-1.5,4.2-3.9V16.9c0-2.4-1.6-3.9-4.2-3.9h-3.8V31.6z"/>
		</g>
	</g>
</g>
<g id="XMLID_343_">
	<path id="XMLID_525_" class="st1" d="M39.9,45h-33c-3.3,0-6-2.7-6-6V6c0-3.3,2.7-6,6-6h33c3.3,0,6,2.7,6,6v33
		C45.9,42.3,43.3,45,39.9,45z"/>
	<g>
		<path class="st0" d="M16.9,12.3h-5.7v20.4h5.7c3.7,0,5.6-1.7,5.6-5.9v-8.6C22.6,14,20.6,12.3,16.9,12.3z M20.2,27.2
			c0,2.1-1.9,3.2-3.8,3.2h-2.9V14.6h2.9c1.9,0,3.8,1.1,3.8,3.2V27.2z"/>
		<path class="st0" d="M35.1,20.6c-1,0-2.1,0.8-2.6,2l0,0v-1.8c-0.2,0.2-0.5,0.4-0.8,0.6c-0.4,0.2-0.9,0.4-1.4,0.4
			c0,0.7,0,1.7,0,2.3v8.5h2.2v-6.3c0-0.5,0-0.9,0.1-1.1c0.3-1.3,1.6-2,2.5-2c0.2,0,0.4,0,0.5,0v-2.6C35.5,20.6,35.3,20.6,35.1,20.6z
			"/>
		<path class="st0" d="M27.7,30.5c-0.6,0-0.9-0.5-0.9-1.1V15.5c-0.2,0.2-0.5,0.4-0.8,0.5c-0.5,0.3-1,0.4-1.6,0.4V30
			c0,1.8,0.9,2.7,2.7,2.7c0.6,0,0.9-0.1,1.3-0.2v-2H27.7z"/>
	</g>
</g>
<g>
	<g class="st2">
		<path class="st0" d="M77.6,17.7l2.1,9.1c0.3,1.2,0.5,2.3,0.7,3.3h0.1c0.2-0.9,0.4-2.1,0.7-3.2l1.9-9.2h2.5l-2.6,10.2
			c-1,4-2.1,7.8-3.9,10.2c-1.1,1.4-2.3,2.2-2.9,2.4l-0.9-2.2c0.7-0.4,1.5-1.1,2.2-2c0.7-0.8,1.2-1.9,1.4-2.7
			c0.1-0.4,0.2-0.6,0.2-0.8c0-0.2,0-0.4-0.1-0.6l-4-14.7H77.6z"/>
		<path class="st0" d="M87.6,21.8c0-1.9-0.1-2.8-0.1-4.1h2.2l0.1,1.9h0.1c0.7-1.3,2-2.2,3.6-2.2c2.2,0,3.8,1.6,3.8,5.5v10.7h-2.5
			V23.4c0-1.9-0.4-3.8-2.2-3.8c-1,0-2.1,0.9-2.4,2.6c-0.1,0.4-0.1,0.9-0.1,1.4v10h-2.5V21.8z"/>
		<path class="st0" d="M107.2,33.6l-0.2-1.7h-0.1c-0.7,1.2-1.8,1.9-3.1,1.9c-2.1,0-3.8-1.8-3.8-4.5c0-4,3.2-5.7,6.8-5.8v-0.5
			c0-2.1-0.5-3.6-2.5-3.6c-1,0-1.9,0.3-2.6,0.8l-0.6-1.8c0.7-0.5,2.1-1,3.7-1c3.2,0,4.6,2.1,4.6,5.7V30c0,1.2,0,2.6,0.2,3.6H107.2z
			 M106.8,25.4c-1.3,0-4.4,0.2-4.4,3.7c0,2.1,1,2.8,1.9,2.8c1.1,0,2.1-0.8,2.4-2.4c0.1-0.3,0.1-0.6,0.1-0.9V25.4z"/>
		<path class="st0" d="M112.8,21.8c0-1.9-0.1-2.8-0.1-4.1h2.2l0.1,2h0.1c0.7-1.3,1.9-2.2,3.6-2.2c1.5,0,2.7,0.7,3.3,2.4h0.1
			c0.4-0.8,1-1.4,1.6-1.8c0.6-0.4,1.4-0.6,2.2-0.6c2.1,0,3.8,1.6,3.8,5.6v10.5h-2.5v-9.9c0-2.1-0.3-4.1-2.2-4.1c-1,0-2,0.9-2.3,2.4
			c-0.1,0.4-0.1,0.9-0.1,1.4v10.2H120V23.2c0-1.8-0.3-3.6-2.2-3.6c-1,0-2.1,0.9-2.4,2.6c-0.1,0.4-0.1,0.9-0.1,1.4v10.1h-2.5V21.8z"
			/>
		<path class="st0" d="M132.7,31c0.6,0.4,1.5,0.8,2.6,0.8c1.4,0,2.3-0.9,2.3-2.3c0-1.2-0.4-2-2-3.1c-2.1-1.3-3.2-2.7-3.2-4.5
			c0-2.6,1.9-4.4,4.4-4.4c1.2,0,2.2,0.4,2.9,0.8l-0.7,1.9c-0.6-0.4-1.3-0.7-2.1-0.7c-1.4,0-2.1,1-2.1,2c0,1.1,0.4,1.7,2,2.8
			c1.8,1.2,3.3,2.6,3.3,4.8c0,3.2-2.2,4.7-4.8,4.7c-1.2,0-2.5-0.4-3.1-0.9L132.7,31z"/>
		<path class="st0" d="M152.4,25.7c0,6.1-2.9,8.2-5.3,8.2c-2.9,0-5.2-2.6-5.2-8.2c0-5.8,2.6-8.2,5.3-8.2
			C150.1,17.5,152.4,20.1,152.4,25.7z M144.5,25.7c0,2.6,0.5,6.2,2.8,6.2c2.2,0,2.6-3.7,2.6-6.2c0-2.4-0.4-6.2-2.7-6.2
			C144.9,19.5,144.5,23.2,144.5,25.7z"/>
		<path class="st0" d="M155.7,33.6V19.7h-2v-1.9h2v-1c0-1.7,0.3-3.5,1.4-4.8c0.9-1,2.2-1.3,3.2-1.3c0.9,0,1.5,0.2,2,0.4l-0.4,2
			c-0.3-0.1-0.7-0.3-1.4-0.3c-1.8,0-2.2,1.9-2.2,4v1h2.9v1.9h-2.9v13.9H155.7z"/>
		<path class="st0" d="M165.9,13.5v4.2h3.1v1.9h-3.1v9.4c0,2.1,0.8,2.6,1.7,2.6c0.4,0,0.7,0,1-0.1l0.1,1.9c-0.5,0.2-1,0.3-1.9,0.3
			c-1,0-1.9-0.3-2.5-1c-0.6-0.7-1-1.8-1-4v-9.2h-1.9v-1.9h1.9v-3.5L165.9,13.5z"/>
		<path class="st0" d="M176.6,11.5h2.5v20h6.2v2.1h-8.8V11.5z"/>
		<path class="st0" d="M193.8,33.6l-0.2-1.7h-0.1c-0.7,1.2-1.8,1.9-3.1,1.9c-2.1,0-3.8-1.8-3.8-4.5c0-4,3.2-5.7,6.8-5.8v-0.5
			c0-2.1-0.5-3.6-2.5-3.6c-1,0-1.9,0.3-2.6,0.8l-0.6-1.8c0.7-0.5,2.1-1,3.7-1c3.2,0,4.6,2.1,4.6,5.7V30c0,1.2,0,2.6,0.2,3.6H193.8z
			 M193.5,25.4c-1.3,0-4.4,0.2-4.4,3.7c0,2.1,1,2.8,1.9,2.8c1.1,0,2.1-0.8,2.4-2.4c0.1-0.3,0.1-0.6,0.1-0.9V25.4z"/>
		<path class="st0" d="M199.3,33.6c0-0.9,0.1-2.7,0.1-3.8V10.9h2.5v8.7h0.1c0.8-1.6,2-2.1,3.3-2.1c2.5,0,4.3,2.9,4.3,8
			c0,5.7-2.4,8.4-4.8,8.4c-1.7,0-2.5-1-3.1-2.3h-0.1l-0.2,2.1H199.3z M202,28c0,0.4,0,0.7,0.1,1c0.6,2.4,1.7,2.8,2.4,2.8
			c2,0,2.8-2.8,2.8-6.1c0-3.2-0.8-6-2.8-6c-1.2,0-2.2,1.5-2.4,2.8c-0.1,0.4-0.1,0.8-0.1,1.1V28z"/>
		<path class="st0" d="M214.4,25.9c0,4.9,1.9,5.9,3.8,5.9c1.1,0,2-0.3,2.6-0.6l0.4,1.9c-0.9,0.5-2.2,0.8-3.5,0.8
			c-3.8,0-5.8-3.1-5.8-8c0-5.1,2.2-8.4,5.3-8.4c3.2,0,4.5,3.4,4.5,7c0,0.6,0,1,0,1.4H214.4z M219.3,24c0.1-3.2-1.1-4.6-2.4-4.6
			c-1.6,0-2.5,2.4-2.6,4.6H219.3z"/>
		<path class="st0" d="M224.5,10.9h2.5v22.7h-2.5V10.9z"/>
		<path class="st0" d="M236.1,11.8c1.1-0.3,2.4-0.4,3.6-0.4c2.2,0,3.8,0.5,5,1.6c1.1,1.1,1.5,2.6,1.5,4.3c0,2.8-1.3,4.7-3.5,5.7v0.1
			c1.6,0.5,2.5,2.1,3,5c0.5,3.1,1,4.9,1.2,5.6h-2.6c-0.3-0.7-0.8-2.8-1.2-5.5c-0.5-3-1.4-4.2-3.6-4.2h-1v9.6h-2.5V11.8z M238.6,22h1
			c2.4,0,4-1.8,4-4.4c0-2.6-1-4.1-3.8-4.2c-0.5,0-1,0-1.3,0.1V22z"/>
		<path class="st0" d="M251.1,25.9c0,4.9,1.9,5.9,3.8,5.9c1.1,0,2-0.3,2.6-0.6l0.4,1.9c-0.9,0.5-2.2,0.8-3.5,0.8
			c-3.8,0-5.8-3.1-5.8-8c0-5.1,2.2-8.4,5.3-8.4c3.2,0,4.5,3.4,4.5,7c0,0.6,0,1,0,1.4H251.1z M256.1,24c0.1-3.2-1.1-4.6-2.4-4.6
			c-1.6,0-2.5,2.4-2.6,4.6H256.1z"/>
		<path class="st0" d="M269,33.2c-0.6,0.3-1.5,0.6-2.6,0.6c-3.5,0-5.8-2.8-5.8-8c0-4.6,2.3-8.3,6.3-8.3c0.9,0,1.8,0.2,2.2,0.5
			l-0.5,2.1c-0.3-0.2-1-0.4-1.8-0.4c-2.5,0-3.7,3-3.7,6.1c0,3.7,1.4,5.9,3.7,5.9c0.7,0,1.2-0.2,1.8-0.4L269,33.2z"/>
		<path class="st0" d="M280.7,25.7c0,6.1-2.9,8.2-5.3,8.2c-2.9,0-5.2-2.6-5.2-8.2c0-5.8,2.6-8.2,5.3-8.2
			C278.4,17.5,280.7,20.1,280.7,25.7z M272.8,25.7c0,2.6,0.5,6.2,2.8,6.2c2.2,0,2.6-3.7,2.6-6.2c0-2.4-0.4-6.2-2.7-6.2
			C273.2,19.5,272.8,23.2,272.8,25.7z"/>
		<path class="st0" d="M293.2,17.7c0,1.1-0.1,2.5-0.1,5v8.9c0,4.2-0.5,5.7-1.6,6.9c-1,1.1-2.5,1.7-4.2,1.7c-1.3,0-2.7-0.3-3.5-0.8
			l0.6-2c0.6,0.3,1.7,0.7,3,0.7c2,0,3.2-1.2,3.2-4.9v-1.6h-0.1c-0.6,1.2-1.7,1.9-3.1,1.9c-2.8,0-4.7-3.2-4.7-7.8
			c0-5.8,2.7-8.3,5-8.3c1.7,0,2.5,1.1,3,2.1h0.1l0.1-1.8H293.2z M290.6,23.2c0-0.4,0-0.8-0.1-1.1c-0.3-1.1-0.9-2.4-2.3-2.4
			c-1.8,0-2.8,2.5-2.8,6c0,4.1,1.3,5.9,2.8,5.9c0.8,0,1.7-0.4,2.3-2.3c0.1-0.5,0.2-1,0.2-1.4V23.2z"/>
		<path class="st0" d="M296.6,21.8c0-1.9-0.1-2.8-0.1-4.1h2.2l0.1,1.9h0.1c0.7-1.3,2-2.2,3.6-2.2c2.2,0,3.8,1.6,3.8,5.5v10.7h-2.5
			V23.4c0-1.9-0.4-3.8-2.2-3.8c-1,0-2.1,0.9-2.4,2.6c-0.1,0.4-0.1,0.9-0.1,1.4v10h-2.5V21.8z"/>
		<path class="st0" d="M312.6,13.6c0,1-0.6,1.6-1.5,1.6c-0.8,0-1.4-0.7-1.4-1.6c0-1,0.7-1.6,1.5-1.6C312,12,312.6,12.7,312.6,13.6z
			 M309.9,33.6V17.7h2.5v15.9H309.9z"/>
		<path class="st0" d="M314.7,32.1l5-9.8c0.4-0.8,0.9-1.6,1.3-2.4v-0.1h-5.7v-2.1h8.5v1.7l-5,9.7c-0.4,0.8-0.9,1.6-1.3,2.4v0.1h6.2
			v2.1h-9.1V32.1z"/>
		<path class="st0" d="M327.6,25.9c0,4.9,1.9,5.9,3.8,5.9c1.1,0,2-0.3,2.6-0.6l0.4,1.9c-0.9,0.5-2.2,0.8-3.5,0.8
			c-3.8,0-5.8-3.1-5.8-8c0-5.1,2.2-8.4,5.3-8.4c3.2,0,4.5,3.4,4.5,7c0,0.6,0,1,0,1.4H327.6z M332.6,24c0.1-3.2-1.1-4.6-2.4-4.6
			c-1.6,0-2.5,2.4-2.6,4.6H332.6z"/>
		<path class="st0" d="M337.7,21.8c0-1.3-0.1-2.9-0.1-4.1h2.3l0.1,2.5h0.1c0.5-1.5,1.9-2.8,3.3-2.8c0.2,0,0.4,0,0.5,0v2.6
			c-0.2,0-0.3,0-0.5,0c-1.6,0-2.8,1.5-3.1,3.3c-0.1,0.4-0.1,0.9-0.1,1.4v8.8h-2.5V21.8z"/>
	</g>
</g>
</svg>
