<svg id="Group_1868" data-name="Group 1868" xmlns="http://www.w3.org/2000/svg" width="136.498" height="136.497" viewBox="0 0 136.498 136.497">
  <g id="Group_1854" data-name="Group 1854" transform="translate(0 0)">
    <path id="Path_6057" data-name="Path 6057" d="M13.418,0H123.079A13.418,13.418,0,0,1,136.5,13.418V123.079A13.418,13.418,0,0,1,123.079,136.5H13.418A13.418,13.418,0,0,1,0,123.079V13.418A13.418,13.418,0,0,1,13.418,0Z" fill="#5db9ad"/>
    <g id="Group_1853" data-name="Group 1853" transform="translate(25.199 39.35)">
      <g id="Group_1852" data-name="Group 1852">
        <path id="Path_6000" data-name="Path 6000" d="M66.962,70.6a2.82,2.82,0,0,1-2.989-2.946V46.443h5.336v-5.92H63.973V32.318a10.807,10.807,0,0,1-2.467,1.763A11.648,11.648,0,0,1,56.8,35.262v5.262H52.013v5.92H56.8V68.83c0,5.293,3.408,8.245,8.971,8.245a12.109,12.109,0,0,0,3.586-.388l0-6.089Z" transform="translate(16.744 -19.276)" fill="#fff"/>
        <path id="Path_6001" data-name="Path 6001" d="M36.365,35.208h7.177v4.711l.6-1.177c1.93-3.2,5.887-4.713,10.168-4.713,6.882,0,10.255,5.251,10.255,14.505V74.659l-7.266.006V49.93C57.3,46,55.95,41.1,50.72,41.1c-7.974,0-7.138,8.808-7.177,8.833V74.665l-7.177-.006Z" transform="translate(0.091 -17.455)" fill="#fff"/>
        <g id="Group_1851" data-name="Group 1851">
          <g id="Group_1850" data-name="Group 1850">
            <path id="Path_6002" data-name="Path 6002" d="M33.878,26H18.7V83.21H33.878c10.284,0,16.188-4.845,16.188-16.561V42.561C50.066,30.843,44.162,26,33.878,26Zm9.611,41.652c0,6.017-4.308,9.033-9.611,9.033h-8.6V32.525h8.6c5.3,0,9.611,3.016,9.611,9.033Z" transform="translate(-18.704 -26)" fill="#fff"/>
          </g>
        </g>
      </g>
    </g>
  </g>
</svg>
