<svg id="Layer_1" data-name="Layer 1" xmlns="http://www.w3.org/2000/svg" viewBox="0 0 404.57 80"><defs><style>.cls-1{fill:#fff;}.cls-2{fill:#6ac4bb;}</style></defs><title>DNT_Horizontal_POS_White</title><path class="cls-1" d="M118.23,33.43l3.06,13.31c.43,1.81.67,3.35,1,4.78h.1c.24-1.29.62-3.06,1-4.74l2.73-13.35h3.64l-3.78,14.89c-1.44,5.83-3,11.43-5.75,14.92A12.82,12.82,0,0,1,116,66.79l-1.34-3.16a11.28,11.28,0,0,0,3.25-2.92,14.11,14.11,0,0,0,2.11-3.88,3.24,3.24,0,0,0,.24-1.15,2.56,2.56,0,0,0-.1-.86l-5.83-21.39Z"/><path class="cls-1" d="M132.87,39.41c0-2.72-.14-4.11-.19-6h3.21l.19,2.78h.1a5.87,5.87,0,0,1,5.31-3.16c3.2,0,5.6,2.39,5.6,8V56.59H143.4V41.66c0-2.72-.52-5.5-3.2-5.5-1.54,0-3,1.29-3.5,3.78a13.8,13.8,0,0,0-.14,2.06V56.59h-3.69Z"/><path class="cls-1" d="M161.39,56.59l-.23-2.44H161A5.2,5.2,0,0,1,156.42,57c-3.11,0-5.5-2.64-5.5-6.61,0-5.79,4.64-8.37,9.85-8.42v-.72c0-3.11-.76-5.26-3.68-5.26a7,7,0,0,0-3.83,1.2l-.81-2.59a9.92,9.92,0,0,1,5.4-1.53c4.65,0,6.66,3.06,6.66,8.28v10a38.1,38.1,0,0,0,.23,5.26Zm-.52-12c-1.92,0-6.37.34-6.37,5.36,0,3,1.54,4.12,2.83,4.12,1.62,0,3-1.2,3.44-3.5a5.83,5.83,0,0,0,.1-1.29Z"/><path class="cls-1" d="M169.67,39.41c0-2.72-.14-4.11-.19-6h3.21l.19,2.87h.1a5.81,5.81,0,0,1,5.21-3.25A4.82,4.82,0,0,1,183,36.59h.1a7.31,7.31,0,0,1,2.3-2.63,5.61,5.61,0,0,1,3.2-.91c3.11,0,5.55,2.3,5.55,8.18V56.59h-3.63V42.09c0-3-.43-5.93-3.26-5.93-1.53,0-2.87,1.29-3.39,3.45a13.46,13.46,0,0,0-.15,2.1V56.59h-3.63V41.42c0-2.58-.48-5.26-3.21-5.26-1.48,0-3,1.29-3.45,3.73a14.2,14.2,0,0,0-.14,2V56.59h-3.64Z"/><path class="cls-1" d="M203.31,27.45a2.14,2.14,0,0,1-2.24,2.39A2.17,2.17,0,0,1,199,27.45a2.21,2.21,0,0,1,2.15-2.39A2.16,2.16,0,0,1,203.31,27.45Zm-4,29.14V33.43H203V56.59Z"/><path class="cls-1" d="M219.44,56a7.91,7.91,0,0,1-3.83.86c-5.07,0-8.47-4.07-8.47-11.72,0-6.65,3.35-12.06,9.14-12.06a7.35,7.35,0,0,1,3.26.72l-.72,3a6,6,0,0,0-2.63-.62c-3.69,0-5.36,4.4-5.36,8.95,0,5.4,2,8.66,5.45,8.66A6.32,6.32,0,0,0,219,53.2Z"/><path class="cls-1" d="M229.87,54.2a2.56,2.56,0,0,1,2.44-2.77c1.49,0,2.44,1.1,2.44,2.77S233.84,57,232.31,57A2.52,2.52,0,0,1,229.87,54.2Z"/><path class="cls-1" d="M239.68,56.59V24.34h3.49l5.94,15.12c1.34,3.45,3,7.75,4.11,11.25h.1c-.29-5.07-.43-9.24-.43-14.84V24.34h3.3V56.59H252.7l-6.13-15.5c-1.29-3.25-2.68-6.94-3.83-11h-.09c.29,4.31.38,8.42.38,15.31V56.59Z"/><path class="cls-1" d="M273.7,41.28h-8.08V53.39h9.19v3.2H261.93V24.34h12.3v3.21h-8.61V38.17h8.08Z"/><path class="cls-1" d="M282.65,27.64h-5.88v-3.3h15.45v3.3h-5.88v29h-3.69Z"/><path class="cls-1" d="M305.43,27.64h-5.88v-3.3H315v3.3h-5.88v29h-3.69Z"/><path class="cls-1" d="M323.57,56.59l-6.22-32.25h3.82l2.73,15.55c.67,4.07,1.2,7.66,1.58,11.63h.19c.39-4.07,1.15-7.56,1.92-11.67l3-15.51h3.16l3,15.17c.72,3.83,1.43,7.51,1.86,12h.15c.52-4.64,1.1-8.13,1.72-11.82l2.68-15.36h3.59l-6.27,32.25h-3.59L333.71,40.9c-.62-3.4-1.24-7-1.63-10.58H332c-.48,3.64-1,7.13-1.77,10.72L327,56.59Z"/><path class="cls-1" d="M352.42,46.93l-2.15,9.66h-3.54l7.37-32.25h4.07l7.17,32.25h-3.63l-2.16-9.66Zm6.65-3-1.67-8.18c-.48-2.3-.91-5-1.29-7.37h-.19c-.39,2.44-.86,5.21-1.3,7.37L353,44Z"/><path class="cls-1" d="M373.05,24.34V56.59h-3.69V24.34Z"/><path class="cls-1" d="M378.89,56.59V24.34h3.49l5.93,15.12c1.34,3.45,3,7.75,4.12,11.25h.09c-.28-5.07-.43-9.24-.43-14.84V24.34h3.3V56.59H391.9l-6.12-15.5a113.43,113.43,0,0,1-3.83-11h-.1c.29,4.31.39,8.42.39,15.31V56.59Z"/><path class="cls-1" d="M92.33,56.84v-34h8.89c6.39,0,9.5,3.18,9.5,9.73V47.12c0,6.54-3.11,9.72-9.5,9.72Zm3.38-3.35h5.51c3.71,0,6.11-2.26,6.11-5.77V31.93c0-3.5-2.4-5.77-6.11-5.77H95.71Z"/><rect class="cls-2" x="5.7" y="6.94" width="66.12" height="66.12" rx="6.49"/><path class="cls-1" d="M58.45,50.86A1.36,1.36,0,0,1,57,49.44V39.16h2.58V36.29H57v-4a5.28,5.28,0,0,1-1.2.85,5.6,5.6,0,0,1-2.28.57v2.55H51.21v2.87h2.32V50c0,2.56,1.65,4,4.34,4a5.7,5.7,0,0,0,1.74-.19v-3Z"/><path class="cls-1" d="M35.56,34.6H39v2.28l.29-.57A5.56,5.56,0,0,1,44.26,34c3.33,0,5,2.54,5,7V53.71H45.71v-12c0-1.9-.66-4.28-3.19-4.28-3.87,0-3.46,4.27-3.48,4.28v12H35.56Z"/><path class="cls-1" d="M25.25,26H17.9V53.71h7.35c5,0,7.85-2.34,7.85-8V34C33.1,28.35,30.24,26,25.25,26Zm4.66,20.18c0,2.91-2.09,4.37-4.66,4.37H21.09V29.16h4.16c2.57,0,4.66,1.46,4.66,4.38Z"/></svg>