<svg xmlns="http://www.w3.org/2000/svg" width="136.739" height="136.739" viewBox="0 0 136.739 136.739">
  <g id="Group_1996" data-name="Group 1996" transform="translate(-14.709 -6.4)">
    <g id="Group_1988" data-name="Group 1988" transform="translate(14.709 6.4)">
      <path id="Path_8256" data-name="Path 8256" d="M137.981,143.139H28.176a13.441,13.441,0,0,1-13.467-13.467V19.867A13.441,13.441,0,0,1,28.176,6.4h109.8a13.44,13.44,0,0,1,13.467,13.467v109.8A13.573,13.573,0,0,1,137.981,143.139Z" transform="translate(-14.709 -6.4)" fill="#5a636a"/>
    </g>
    <g id="Group_1995" data-name="Group 1995" transform="translate(40.399 38.72)">
      <g id="Group_1990" data-name="Group 1990">
        <g id="Group_1989" data-name="Group 1989">
          <path id="Path_8257" data-name="Path 8257" d="M43.943,23.891H28.612V81.9H43.943c10.359,0,16.368-4.972,16.368-16.782V40.673C60.311,28.657,54.509,23.891,43.943,23.891Zm9.738,42.058c0,6.007-4.352,9.115-9.738,9.115h-8.7V30.521h8.7c5.386,0,9.738,3.108,9.738,9.115Z" transform="translate(-28.612 -23.891)" fill="#fff"/>
        </g>
      </g>
      <path id="Path_8258" data-name="Path 8258" d="M65.908,64.695a13.816,13.816,0,0,0,6.421,2.071,4.407,4.407,0,0,0,4.766-4.557c0-2.28-1.244-3.522-4.766-5.8-5.386-3.315-7.044-6.837-7.044-10.566,0-6.423,4.145-11.187,10.773-11.187A12.982,12.982,0,0,1,83.1,36.519l-1.658,6.007a10.245,10.245,0,0,0-5.179-1.657c-2.9,0-4.559,1.864-4.559,3.936s.828,3.315,4.559,5.6c4.971,2.9,7.251,6.63,7.251,11.187,0,7.46-4.766,11.189-11.6,11.189-2.9,0-6.216-.83-7.874-2.071Z" transform="translate(1.426 -14.765)" fill="#fff"/>
      <g id="Group_1992" data-name="Group 1992" transform="translate(44.543 19.89)">
        <g id="Group_1991" data-name="Group 1991">
          <path id="Path_8259" data-name="Path 8259" d="M59.348,34.655c-3.522,0-4.972,1.657-6.63,5.179v9.736c0-.828.414-2.9.414-3.522,1.037-3.936,2.9-4.766,4.352-4.766,3.936,0,6.423,4.766,6.423,12.225,0,6.837-2.487,12.43-6.423,12.43-2.071,0-3.936-2.278-4.352-4.766,0-.828-.414-2.9-.414-3.522V68.217A9.028,9.028,0,0,0,60.8,72.775c6.63,0,10.359-7.46,10.359-18.439C71.157,41.283,65.771,34.655,59.348,34.655Z" transform="translate(-52.718 -34.655)" fill="#fff"/>
        </g>
      </g>
      <g id="Group_1994" data-name="Group 1994" transform="translate(37.293 18.646)">
        <g id="Group_1993" data-name="Group 1993">
          <path id="Path_8260" data-name="Path 8260" d="M56.045,33.982a9.164,9.164,0,0,1-3.108,2.485,7.979,7.979,0,0,1-4.143,1.244V87.227h7.251V33.982Z" transform="translate(-48.794 -33.982)" fill="#fff"/>
        </g>
      </g>
    </g>
  </g>
</svg>
