<?xml version="1.0" encoding="utf-8"?>
<!-- Generator: Adobe Illustrator 25.2.2, SVG Export Plug-In . SVG Version: 6.00 Build 0)  -->
<svg version="1.1" id="Layer_1" xmlns="http://www.w3.org/2000/svg" xmlns:xlink="http://www.w3.org/1999/xlink" x="0px" y="0px"
	 viewBox="0 0 465.6 84.1" style="enable-background:new 0 0 465.6 84.1;" xml:space="preserve">
<style type="text/css">
	.st0{fill:#323234;}
	.st1{enable-background:new    ;}
	.st2{fill:#5A636A;}
	.st3{fill:#FFFFFF;}
</style>
<g>
	<g>
		<g>
			<path class="st0" d="M125.4,57.6v-34h8.9c6.4,0,9.5,3.2,9.5,9.7v14.6c0,6.5-3.1,9.7-9.5,9.7C134.3,57.6,125.4,57.6,125.4,57.6z
				 M128.8,54.3h5.5c3.7,0,6.1-2.3,6.1-5.8V32.7c0-3.5-2.4-5.8-6.1-5.8h-5.5V54.3z"/>
		</g>
	</g>
	<g class="st1">
		<path class="st0" d="M151.3,34.3l3.1,13.3c0.4,1.8,0.7,3.3,1,4.8h0.1c0.2-1.3,0.6-3.1,1-4.7l2.7-13.3h3.6L159,49.1
			c-1.4,5.8-3,11.4-5.7,14.9c-1.6,2.1-3.3,3.2-4.2,3.5l-1.3-3.2c1.1-0.6,2.2-1.6,3.2-2.9c1-1.2,1.7-2.8,2.1-3.9
			c0.2-0.6,0.2-0.8,0.2-1.1c0-0.3,0-0.6-0.1-0.9l-5.8-21.4H151.3z"/>
		<path class="st0" d="M166,40.2c0-2.7-0.1-4.1-0.2-6h3.2l0.2,2.8h0.1c1-1.9,2.9-3.2,5.3-3.2c3.2,0,5.6,2.4,5.6,8v15.5h-3.7V42.5
			c0-2.7-0.5-5.5-3.2-5.5c-1.5,0-3,1.3-3.5,3.8c-0.1,0.6-0.1,1.3-0.1,2.1v14.6H166V40.2z"/>
		<path class="st0" d="M194.4,57.4l-0.2-2.4h-0.1c-1,1.8-2.6,2.8-4.6,2.8c-3.1,0-5.5-2.6-5.5-6.6c0-5.8,4.6-8.4,9.8-8.4V42
			c0-3.1-0.8-5.3-3.7-5.3c-1.4,0-2.7,0.5-3.8,1.2l-0.8-2.6c1-0.7,3.1-1.5,5.4-1.5c4.6,0,6.6,3.1,6.6,8.3v10c0,1.8,0,3.8,0.2,5.3
			H194.4z M193.9,45.4c-1.9,0-6.4,0.3-6.4,5.4c0,3,1.5,4.1,2.8,4.1c1.6,0,3-1.2,3.4-3.5c0.1-0.4,0.1-0.9,0.1-1.3V45.4z"/>
		<path class="st0" d="M202.7,40.2c0-2.7-0.1-4.1-0.2-6h3.2l0.2,2.9h0.1c1-1.9,2.8-3.2,5.2-3.2c2.1,0,4,1.1,4.8,3.5h0.1
			c0.6-1.1,1.4-2.1,2.3-2.6c0.9-0.6,2-0.9,3.2-0.9c3.1,0,5.5,2.3,5.5,8.2v15.3h-3.6V42.9c0-3-0.4-5.9-3.2-5.9
			c-1.5,0-2.9,1.3-3.4,3.4c-0.1,0.6-0.1,1.3-0.1,2.1v14.9h-3.6V42.2c0-2.6-0.5-5.3-3.2-5.3c-1.5,0-3,1.3-3.4,3.7
			c-0.1,0.6-0.1,1.3-0.1,2v14.7h-3.6V40.2z"/>
		<path class="st0" d="M231.7,53.6c0.8,0.5,2.2,1.2,3.7,1.2c2.1,0,3.4-1.3,3.4-3.3c0-1.8-0.6-3-3-4.5c-3-2-4.6-3.9-4.6-6.6
			c0-3.7,2.8-6.4,6.4-6.4c1.8,0,3.2,0.6,4.2,1.2l-1,2.8c-0.9-0.6-1.9-1-3.1-1c-2,0-3,1.4-3,2.9c0,1.6,0.6,2.4,2.9,4
			c2.7,1.7,4.8,3.8,4.8,7c0,4.6-3.2,6.9-6.9,6.9c-1.7,0-3.6-0.5-4.6-1.3L231.7,53.6z"/>
		<path class="st0" d="M260.3,45.8c0,8.9-4.2,11.9-7.7,11.9c-4.2,0-7.5-3.8-7.5-11.9c0-8.5,3.8-12,7.7-12
			C257,33.9,260.3,37.7,260.3,45.8z M248.8,45.8c0,3.8,0.7,9,4,9c3.2,0,3.8-5.4,3.8-9c0-3.5-0.6-9-3.9-9
			C249.4,36.8,248.8,42.3,248.8,45.8z"/>
		<path class="st0" d="M265.2,57.4V37.1h-2.9v-2.8h2.9v-1.4c0-2.5,0.4-5.1,2.1-7c1.3-1.5,3.2-2,4.6-2c1.2,0,2.2,0.2,2.9,0.6
			l-0.6,2.9c-0.4-0.2-1.1-0.4-2-0.4c-2.6,0-3.2,2.8-3.2,5.8v1.4h4.2v2.8h-4.2v20.3H265.2z"/>
		<path class="st0" d="M280.1,28.1v6.1h4.4v2.8h-4.4v13.7c0,3,1.1,3.8,2.4,3.8c0.6,0,1.1,0,1.5-0.1l0.1,2.8
			c-0.7,0.2-1.5,0.4-2.7,0.4c-1.4,0-2.7-0.4-3.6-1.4c-0.9-1.1-1.4-2.6-1.4-5.8V37.1h-2.8v-2.8h2.8v-5.1L280.1,28.1z"/>
		<path class="st0" d="M295.5,25.7c1.5-0.4,3.2-0.6,5.4-0.6c3,0,5.4,0.7,7.1,2.4c1.6,1.5,2.4,3.9,2.4,6.6c0,3-0.7,5-2,6.6
			c-1.8,2.4-4.7,3.6-7.6,3.6c-0.6,0-1.1,0-1.6,0v13.2h-3.7V25.7z M299.2,41.1c0.4,0.1,0.8,0.1,1.4,0.1c3.6,0,6.1-2.4,6.1-6.9
			c0-3.3-1.4-6.3-5.4-6.3c-0.9,0-1.6,0.1-2.1,0.2V41.1z"/>
		<path class="st0" d="M322.2,57.4l-0.2-2.4h-0.1c-1,1.8-2.6,2.8-4.6,2.8c-3.1,0-5.5-2.6-5.5-6.6c0-5.8,4.6-8.4,9.8-8.4V42
			c0-3.1-0.8-5.3-3.7-5.3c-1.4,0-2.7,0.5-3.8,1.2l-0.8-2.6c1-0.7,3.1-1.5,5.4-1.5c4.6,0,6.6,3.1,6.6,8.3v10c0,1.8,0,3.8,0.2,5.3
			H322.2z M321.7,45.4c-1.9,0-6.4,0.3-6.4,5.4c0,3,1.5,4.1,2.8,4.1c1.6,0,3-1.2,3.4-3.5c0.1-0.4,0.1-0.9,0.1-1.3V45.4z"/>
		<path class="st0" d="M330.5,40.2c0-2.7-0.1-4.1-0.2-6h3.2l0.2,2.8h0.1c1-1.9,2.9-3.2,5.3-3.2c3.2,0,5.6,2.4,5.6,8v15.5H341V42.5
			c0-2.7-0.5-5.5-3.2-5.5c-1.5,0-3,1.3-3.5,3.8c-0.1,0.6-0.1,1.3-0.1,2.1v14.6h-3.7V40.2z"/>
		<path class="st0" d="M364.1,45.8c0,8.9-4.2,11.9-7.7,11.9c-4.2,0-7.5-3.8-7.5-11.9c0-8.5,3.8-12,7.7-12
			C360.7,33.9,364.1,37.7,364.1,45.8z M352.5,45.8c0,3.8,0.7,9,4,9c3.2,0,3.8-5.4,3.8-9c0-3.5-0.6-9-3.9-9
			C353.2,36.8,352.5,42.3,352.5,45.8z"/>
		<path class="st0" d="M368.1,40.2c0-2-0.1-4.3-0.2-6h3.3l0.2,3.6h0.1c0.8-2.2,2.7-4,4.9-4c0.3,0,0.5,0,0.8,0v3.8
			c-0.2,0-0.5,0-0.8,0c-2.3,0-4.1,2.2-4.4,4.8c-0.1,0.6-0.1,1.3-0.1,2.1v12.8h-3.7V40.2z"/>
		<path class="st0" d="M388.8,57.4l-0.2-2.4h-0.1c-1,1.8-2.6,2.8-4.6,2.8c-3.1,0-5.5-2.6-5.5-6.6c0-5.8,4.6-8.4,9.8-8.4V42
			c0-3.1-0.8-5.3-3.7-5.3c-1.4,0-2.7,0.5-3.8,1.2l-0.8-2.6c1-0.7,3.1-1.5,5.4-1.5c4.6,0,6.6,3.1,6.6,8.3v10c0,1.8,0,3.8,0.2,5.3
			H388.8z M388.3,45.4c-1.9,0-6.4,0.3-6.4,5.4c0,3,1.5,4.1,2.8,4.1c1.6,0,3-1.2,3.4-3.5c0.1-0.4,0.1-0.9,0.1-1.3V45.4z"/>
		<path class="st0" d="M397.1,40.2c0-2.7-0.1-4.1-0.2-6h3.2l0.2,2.9h0.1c1-1.9,2.8-3.2,5.2-3.2c2.1,0,4,1.1,4.8,3.5h0.1
			c0.6-1.1,1.4-2.1,2.3-2.6c0.9-0.6,2-0.9,3.2-0.9c3.1,0,5.5,2.3,5.5,8.2v15.3h-3.6V42.9c0-3-0.4-5.9-3.2-5.9
			c-1.5,0-2.9,1.3-3.4,3.4c-0.1,0.6-0.1,1.3-0.1,2.1v14.9h-3.6V42.2c0-2.6-0.5-5.3-3.2-5.3c-1.5,0-3,1.3-3.4,3.7
			c-0.1,0.6-0.1,1.3-0.1,2v14.7h-3.6V40.2z"/>
		<path class="st0" d="M435.9,57.4l-0.2-2.4h-0.1c-1,1.8-2.6,2.8-4.6,2.8c-3.1,0-5.5-2.6-5.5-6.6c0-5.8,4.6-8.4,9.8-8.4V42
			c0-3.1-0.8-5.3-3.7-5.3c-1.4,0-2.7,0.5-3.8,1.2l-0.8-2.6c1-0.7,3.1-1.5,5.4-1.5c4.6,0,6.6,3.1,6.6,8.3v10c0,1.8,0,3.8,0.2,5.3
			H435.9z M435.3,45.4c-1.9,0-6.4,0.3-6.4,5.4c0,3,1.5,4.1,2.8,4.1c1.6,0,3-1.2,3.4-3.5c0.1-0.4,0.1-0.9,0.1-1.3V45.4z"/>
	</g>
</g>
<g>
	<g>
		<path id="XMLID_3006_" class="st2" d="M98.6,76.4h-53c-3.6,0-6.5-2.9-6.5-6.5v-53c0-3.6,2.9-6.5,6.5-6.5h53c3.6,0,6.5,2.9,6.5,6.5
			v53C105.1,73.4,102.2,76.4,98.6,76.4z"/>
	</g>
	<g>
		<g id="XMLID_2923_">
			<g>
				<path class="st3" d="M58.9,26h-7.4v28h7.4c5,0,7.9-2.4,7.9-8.1V34.1C66.8,28.3,64,26,58.9,26z M63.6,46.3c0,2.9-2.1,4.4-4.7,4.4
					h-4.2V29.2h4.2c2.6,0,4.7,1.5,4.7,4.4V46.3z"/>
			</g>
		</g>
		<path id="XMLID_2829_" class="st3" d="M84,50.1c0.7,0.4,1.9,1,3.1,1c1.4,0,2.3-0.9,2.3-2.2c0-1.1-0.6-1.7-2.3-2.8
			c-2.6-1.6-3.4-3.3-3.4-5.1c0-3.1,2-5.4,5.2-5.4c1.5,0,2.6,0.4,3.4,0.9l-0.8,2.9C90.8,39,90,38.6,89,38.6c-1.4,0-2.2,0.9-2.2,1.9
			s0.4,1.6,2.2,2.7c2.4,1.4,3.5,3.2,3.5,5.4c0,3.6-2.3,5.4-5.6,5.4c-1.4,0-3-0.4-3.8-1L84,50.1z"/>
		<g id="XMLID_2861_">
			<g>
				<path class="st3" d="M76.2,35.6c-1.7,0-2.4,0.8-3.2,2.5v4.7c0-0.4,0.2-1.4,0.2-1.7c0.5-1.9,1.4-2.3,2.1-2.3
					c1.9,0,3.1,2.3,3.1,5.9c0,3.3-1.2,6-3.1,6c-1,0-1.9-1.1-2.1-2.3c0-0.4-0.2-1.4-0.2-1.7v5.1c0.9,1.5,2.3,2.2,3.9,2.2
					c3.2,0,5-3.6,5-8.9C81.9,38.8,79.3,35.6,76.2,35.6z"/>
			</g>
		</g>
		<g id="XMLID_407_">
			<g>
				<path class="st3" d="M73,35c-0.4,0.5-0.9,0.9-1.5,1.2c-0.7,0.4-1.3,0.6-2,0.6v23.9H73V35L73,35z"/>
			</g>
		</g>
	</g>
</g>
</svg>
