<svg xmlns="http://www.w3.org/2000/svg" width="136.484" height="136.484" viewBox="0 0 136.484 136.484">
  <g id="Group_1867" data-name="Group 1867" transform="translate(0 0)">
    <g id="Group_1846" data-name="Group 1846" transform="translate(0 0)">
      <path id="Path_6059" data-name="Path 6059" d="M13.485,0H123a13.485,13.485,0,0,1,13.485,13.485V123A13.485,13.485,0,0,1,123,136.484H13.485A13.485,13.485,0,0,1,0,123V13.485A13.485,13.485,0,0,1,13.485,0Z" fill="#f6770e"/>
    </g>
    <path id="Path_5981" data-name="Path 5981" d="M39.9,37.093s5.282,23.97,5.66,27.535h.3c.526-3.565,1.356-7.65,2.108-11.066L51.8,37.093h5.951l3.629,16.022c.828,4.085,1.581,7.724,2.11,11.512h.225c.3-3.639,5.935-27.535,5.935-27.535h7.14L66.725,73.019H59.946L56.554,58.241c-.828-3.491-2.087-10.982-2.087-10.982h0a94.057,94.057,0,0,1-2.13,11.056l-3.691,14.7H41.791L32.758,37.093Z" transform="translate(21.445 23.828)" fill="#fff"/>
    <path id="Path_5982" data-name="Path 5982" d="M69.592,71.4A2.821,2.821,0,0,1,66.6,68.456V47.249h5.336V41.326H66.6V33.121a10.878,10.878,0,0,1-2.467,1.765,11.682,11.682,0,0,1-4.711,1.181v5.26H54.641v5.922h4.783V69.633c0,5.293,3.408,8.245,8.971,8.245a12.124,12.124,0,0,0,3.586-.386l0-6.092Z" transform="translate(44.734 19.601)" fill="#fff"/>
    <path id="Union_19" data-name="Union 19" d="M0,0H15.174C25.458,0,31.362,4.843,31.362,16.559V40.649c0,11.717-5.9,16.559-16.188,16.559H0ZM6.575,50.685h8.6c5.3,0,9.611-3.016,9.611-9.033v-26.1c0-6.015-4.308-9.033-9.611-9.033h-8.6Z" transform="translate(20.868 39.638)" fill="#fff"/>
  </g>
</svg>
