<svg id="Layer_1" data-name="Layer 1" xmlns="http://www.w3.org/2000/svg" viewBox="0 0 403.03 80"><defs><style>.cls-1{fill:#323234;}.cls-2{fill:#f78e1f;}.cls-3{fill:#fff;}</style></defs><title>DWT_Horizontal_Pos</title><path class="cls-1" d="M118.59,33.61l3.07,13.3c.43,1.82.67,3.35,1,4.78h.1c.24-1.29.62-3.06,1-4.73l2.73-13.35h3.64L126.3,48.49c-1.44,5.84-3,11.43-5.74,14.93A12.75,12.75,0,0,1,116.39,67l-1.34-3.16a11.15,11.15,0,0,0,3.26-2.92,14.29,14.29,0,0,0,2.1-3.87,3.32,3.32,0,0,0,.24-1.15,2.77,2.77,0,0,0-.09-.86l-5.84-21.39Z"/><path class="cls-1" d="M133.24,39.59c0-2.73-.15-4.12-.19-6h3.2l.19,2.77h.1a5.87,5.87,0,0,1,5.31-3.16c3.21,0,5.6,2.4,5.6,8V56.77h-3.69V41.84c0-2.73-.52-5.51-3.2-5.51-1.53,0-3,1.3-3.5,3.78a13.9,13.9,0,0,0-.14,2.06v14.6h-3.68Z"/><path class="cls-1" d="M161.76,56.77l-.24-2.44h-.15a5.19,5.19,0,0,1-4.59,2.82c-3.11,0-5.5-2.63-5.5-6.6,0-5.79,4.64-8.38,9.86-8.43v-.71c0-3.11-.77-5.27-3.69-5.27a7,7,0,0,0-3.83,1.2l-.81-2.59a10,10,0,0,1,5.41-1.53c4.64,0,6.65,3.07,6.65,8.28v10a36.74,36.74,0,0,0,.24,5.27Zm-.53-12c-1.91,0-6.36.34-6.36,5.36,0,3,1.53,4.12,2.82,4.12,1.63,0,3-1.2,3.45-3.5a6.42,6.42,0,0,0,.09-1.29Z"/><path class="cls-1" d="M170,39.59c0-2.73-.15-4.12-.2-6h3.21l.19,2.87h.1a5.8,5.8,0,0,1,5.21-3.26,4.84,4.84,0,0,1,4.84,3.54h.09a7.49,7.49,0,0,1,2.3-2.63,5.62,5.62,0,0,1,3.21-.91c3.11,0,5.55,2.3,5.55,8.19V56.77H190.9V42.27c0-3-.43-5.94-3.25-5.94-1.54,0-2.88,1.3-3.4,3.45a13.46,13.46,0,0,0-.15,2.1V56.77h-3.63V41.6c0-2.59-.48-5.27-3.21-5.27-1.48,0-3,1.3-3.44,3.74a12.64,12.64,0,0,0-.15,2V56.77H170Z"/><path class="cls-1" d="M203.68,27.62a2.19,2.19,0,1,1-4.36,0,2.21,2.21,0,0,1,2.16-2.39A2.16,2.16,0,0,1,203.68,27.62Zm-4,29.15V33.61h3.69V56.77Z"/><path class="cls-1" d="M219.8,56.19a7.91,7.91,0,0,1-3.83.86c-5.07,0-8.47-4.06-8.47-11.72,0-6.65,3.35-12.06,9.14-12.06a7.5,7.5,0,0,1,3.26.72l-.72,3a6,6,0,0,0-2.63-.62c-3.69,0-5.36,4.4-5.36,8.95,0,5.41,2.06,8.66,5.45,8.66a6.32,6.32,0,0,0,2.68-.62Z"/><path class="cls-1" d="M233.39,56.77l-6.22-32.26H231l2.73,15.56c.67,4.06,1.19,7.65,1.58,11.62h.19c.38-4.06,1.15-7.56,1.91-11.67l3-15.51h3.16l3,15.17c.71,3.83,1.43,7.52,1.86,12h.14c.53-4.64,1.1-8.13,1.73-11.82l2.68-15.36h3.59l-6.27,32.26h-3.59l-3.11-15.7c-.62-3.4-1.25-7-1.63-10.57h-.09c-.48,3.63-1,7.13-1.78,10.71l-3.2,15.56Z"/><path class="cls-1" d="M260.91,45.52c0,7.08,2.82,8.61,5.5,8.61a7.75,7.75,0,0,0,3.83-.91l.57,2.73a11.12,11.12,0,0,1-5.07,1.1c-5.55,0-8.42-4.54-8.42-11.62,0-7.52,3.16-12.21,7.8-12.21s6.6,5,6.6,10.24c0,.86,0,1.49,0,2.06Zm7.27-2.73c.1-4.64-1.67-6.7-3.44-6.7-2.39,0-3.64,3.55-3.78,6.7Z"/><path class="cls-1" d="M275.46,56.77c0-1.34.19-4,.19-5.55V23.65h3.68V36.33h.1a5.18,5.18,0,0,1,4.88-3.11c3.59,0,6.32,4.17,6.32,11.73,0,8.37-3.45,12.2-7,12.2-2.44,0-3.68-1.44-4.59-3.4h-.15l-.24,3Zm3.87-8.19a4.25,4.25,0,0,0,.15,1.44c.86,3.44,2.44,4.07,3.44,4.07,3,0,4-4,4-9,0-4.64-1.1-8.76-4.07-8.76-1.72,0-3.15,2.15-3.44,4.12a8.82,8.82,0,0,0-.1,1.62Z"/><path class="cls-1" d="M304.69,27.82h-5.88V24.51h15.45v3.31h-5.88v29h-3.69Z"/><path class="cls-1" d="M322.83,56.77l-6.22-32.26h3.83l2.73,15.56c.67,4.06,1.19,7.65,1.57,11.62h.2c.38-4.06,1.14-7.56,1.91-11.67l3-15.51H333l3,15.17c.72,3.83,1.44,7.52,1.87,12H338c.53-4.64,1.1-8.13,1.72-11.82l2.68-15.36h3.59l-6.27,32.26h-3.58L333,41.07c-.62-3.4-1.24-7-1.62-10.57h-.1c-.48,3.63-1,7.13-1.77,10.71l-3.2,15.56Z"/><path class="cls-1" d="M351.69,47.1l-2.16,9.67H346l7.37-32.26h4.07l7.18,32.26H361l-2.15-9.67Zm6.65-3L356.66,36c-.48-2.3-.91-5-1.29-7.37h-.19c-.38,2.44-.86,5.22-1.29,7.37l-1.68,8.18Z"/><path class="cls-1" d="M372.31,24.51V56.77h-3.68V24.51Z"/><path class="cls-1" d="M378.15,56.77V24.51h3.49l5.94,15.13c1.34,3.44,3,7.75,4.11,11.24h.1c-.29-5.07-.43-9.24-.43-14.83V24.51h3.3V56.77h-3.5L385,41.26c-1.29-3.25-2.68-6.94-3.83-11h-.09c.28,4.31.38,8.43.38,15.32V56.77Z"/><path class="cls-1" d="M92.69,57V23h8.88c6.39,0,9.5,3.18,9.5,9.72V47.29c0,6.54-3.11,9.72-9.5,9.72Zm3.39-3.35h5.5c3.72,0,6.12-2.26,6.12-5.76V32.1c0-3.5-2.4-5.76-6.12-5.76h-5.5Z"/><rect class="cls-2" x="6.5" y="7.58" width="66.12" height="66.12" rx="6.53"/><path class="cls-3" d="M36.22,37.09S38.78,48.71,39,50.43h.14c.26-1.72.66-3.7,1-5.36l1.85-8h2.88l1.76,7.77c.4,2,.77,3.74,1,5.57h.11c.15-1.76,2.88-13.34,2.88-13.34h3.46L49.21,54.5H45.93l-1.64-7.16c-.4-1.69-1-5.32-1-5.32h0a46.24,46.24,0,0,1-1,5.35L40.45,54.5H37.13L32.76,37.09Z"/><path class="cls-3" d="M61.88,51.67a1.38,1.38,0,0,1-1.45-1.43V40H63V37.1H60.43v-4a5.34,5.34,0,0,1-1.19.86,5.77,5.77,0,0,1-2.28.57V37.1H54.64V40H57V50.81c0,2.56,1.65,4,4.34,4A6.12,6.12,0,0,0,63,54.62V51.67Z"/><path class="cls-3" d="M24,26.78H16.61V54.5H24c5,0,7.84-2.35,7.84-8V34.81C31.8,29.13,28.94,26.78,24,26.78ZM28.62,47c0,2.92-2.09,4.38-4.66,4.38H19.79V29.94H24c2.57,0,4.66,1.46,4.66,4.38Z"/></svg>