<svg id="Layer_1" data-name="Layer 1" xmlns="http://www.w3.org/2000/svg" viewBox="0 0 403.03 80"><defs><style>.cls-1{fill:#fff;}.cls-2{fill:#f78e1f;}</style></defs><title>DWT_Horizontal_POS_White</title><path class="cls-1" d="M120.87,33.61l3.06,13.3c.43,1.82.67,3.35,1,4.78H125c.24-1.29.62-3.06,1-4.73l2.73-13.35h3.63l-3.78,14.88c-1.43,5.84-3,11.43-5.74,14.93A12.85,12.85,0,0,1,118.67,67l-1.34-3.16a11.13,11.13,0,0,0,3.25-2.92A14.34,14.34,0,0,0,122.69,57a3.32,3.32,0,0,0,.24-1.15,2.51,2.51,0,0,0-.1-.86L117,33.61Z"/><path class="cls-1" d="M135.51,39.59c0-2.73-.14-4.12-.19-6h3.21l.19,2.77h.09a5.88,5.88,0,0,1,5.31-3.16c3.21,0,5.6,2.4,5.6,8V56.77H146V41.84c0-2.73-.53-5.51-3.21-5.51-1.53,0-3,1.3-3.49,3.78a12.66,12.66,0,0,0-.14,2.06v14.6h-3.69Z"/><path class="cls-1" d="M164,56.77l-.24-2.44h-.14a5.2,5.2,0,0,1-4.6,2.82c-3.11,0-5.5-2.63-5.5-6.6,0-5.79,4.64-8.38,9.86-8.43v-.71c0-3.11-.77-5.27-3.69-5.27a7,7,0,0,0-3.82,1.2l-.82-2.59a10,10,0,0,1,5.41-1.53c4.64,0,6.65,3.07,6.65,8.28v10a36.74,36.74,0,0,0,.24,5.27Zm-.53-12c-1.91,0-6.36.34-6.36,5.36,0,3,1.53,4.12,2.82,4.12,1.63,0,3-1.2,3.45-3.5a6.42,6.42,0,0,0,.09-1.29Z"/><path class="cls-1" d="M172.31,39.59c0-2.73-.14-4.12-.19-6h3.2l.2,2.87h.09a5.82,5.82,0,0,1,5.22-3.26,4.83,4.83,0,0,1,4.83,3.54h.1a7.47,7.47,0,0,1,2.29-2.63,5.62,5.62,0,0,1,3.21-.91c3.11,0,5.55,2.3,5.55,8.19V56.77h-3.64V42.27c0-3-.43-5.94-3.25-5.94-1.53,0-2.87,1.3-3.4,3.45a14.88,14.88,0,0,0-.14,2.1V56.77h-3.64V41.6c0-2.59-.48-5.27-3.2-5.27-1.49,0-3,1.3-3.45,3.74a12.69,12.69,0,0,0-.14,2V56.77h-3.64Z"/><path class="cls-1" d="M206,27.62A2.15,2.15,0,0,1,203.7,30a2.18,2.18,0,0,1-2.1-2.4,2.21,2.21,0,0,1,2.15-2.39A2.16,2.16,0,0,1,206,27.62Zm-4,29.15V33.61h3.68V56.77Z"/><path class="cls-1" d="M222.08,56.19a7.94,7.94,0,0,1-3.83.86c-5.07,0-8.47-4.06-8.47-11.72,0-6.65,3.35-12.06,9.14-12.06a7.48,7.48,0,0,1,3.25.72l-.72,3a6,6,0,0,0-2.63-.62c-3.68,0-5.36,4.4-5.36,8.95,0,5.41,2.06,8.66,5.46,8.66a6.35,6.35,0,0,0,2.68-.62Z"/><path class="cls-1" d="M235.67,56.77l-6.22-32.26h3.82L236,40.07c.67,4.06,1.2,7.65,1.58,11.62h.19c.39-4.06,1.15-7.56,1.92-11.67l3-15.51h3.16l3,15.17c.72,3.83,1.43,7.52,1.86,12h.15c.52-4.64,1.1-8.13,1.72-11.82l2.68-15.36h3.59l-6.27,32.26h-3.59l-3.11-15.7c-.62-3.4-1.24-7-1.63-10.57h-.09c-.48,3.63-1,7.13-1.77,10.71l-3.21,15.56Z"/><path class="cls-1" d="M263.18,45.52c.05,7.08,2.83,8.61,5.51,8.61a7.68,7.68,0,0,0,3.82-.91l.58,2.73a11.15,11.15,0,0,1-5.07,1.1c-5.55,0-8.43-4.54-8.43-11.62,0-7.52,3.16-12.21,7.8-12.21s6.61,5,6.61,10.24c0,.86,0,1.49-.05,2.06Zm7.28-2.73c.09-4.64-1.68-6.7-3.45-6.7-2.39,0-3.64,3.55-3.78,6.7Z"/><path class="cls-1" d="M277.73,56.77c0-1.34.19-4,.19-5.55V23.65h3.69V36.33h.09a5.19,5.19,0,0,1,4.88-3.11c3.59,0,6.32,4.17,6.32,11.73,0,8.37-3.45,12.2-7,12.2-2.45,0-3.69-1.44-4.6-3.4h-.14l-.24,3Zm3.88-8.19a4.54,4.54,0,0,0,.14,1.44c.86,3.44,2.44,4.07,3.45,4.07,3,0,4-4,4-9,0-4.64-1.1-8.76-4.06-8.76-1.73,0-3.16,2.15-3.45,4.12a9.78,9.78,0,0,0-.09,1.62Z"/><path class="cls-1" d="M307,27.82h-5.89V24.51h15.46v3.31h-5.89v29H307Z"/><path class="cls-1" d="M325.1,56.77l-6.22-32.26h3.83l2.73,15.56c.67,4.06,1.2,7.65,1.58,11.62h.19c.38-4.06,1.15-7.56,1.91-11.67l3-15.51h3.16l3,15.17c.71,3.83,1.43,7.52,1.86,12h.15c.52-4.64,1.1-8.13,1.72-11.82l2.68-15.36h3.59L342,56.77h-3.59l-3.11-15.7c-.62-3.4-1.25-7-1.63-10.57h-.09c-.48,3.63-1,7.13-1.77,10.71l-3.21,15.56Z"/><path class="cls-1" d="M354,47.1l-2.15,9.67h-3.54l7.36-32.26h4.07l7.18,32.26h-3.64l-2.15-9.67Zm6.65-3L358.94,36c-.48-2.3-.91-5-1.3-7.37h-.19c-.38,2.44-.86,5.22-1.29,7.37l-1.67,8.18Z"/><path class="cls-1" d="M374.58,24.51V56.77H370.9V24.51Z"/><path class="cls-1" d="M380.42,56.77V24.51h3.5l5.93,15.13c1.34,3.44,3,7.75,4.11,11.24h.1c-.29-5.07-.43-9.24-.43-14.83V24.51h3.3V56.77h-3.49l-6.13-15.51a113.52,113.52,0,0,1-3.82-11h-.1c.29,4.31.38,8.43.38,15.32V56.77Z"/><path class="cls-1" d="M95,57V23h8.88c6.4,0,9.5,3.18,9.5,9.72V47.29c0,6.54-3.1,9.72-9.5,9.72Zm3.38-3.35h5.5c3.72,0,6.12-2.26,6.12-5.76V32.1c0-3.5-2.4-5.76-6.12-5.76h-5.5Z"/><rect class="cls-2" x="8.77" y="7.58" width="66.12" height="66.12" rx="6.53"/><path class="cls-1" d="M38.49,37.09s2.56,11.62,2.74,13.34h.15c.25-1.72.66-3.7,1-5.36l1.86-8h2.88l1.76,7.77c.4,2,.76,3.74,1,5.57H50c.14-1.76,2.87-13.34,2.87-13.34h3.46L51.49,54.5H48.2l-1.64-7.16c-.4-1.69-1-5.32-1-5.32h0a46.35,46.35,0,0,1-1,5.35L42.73,54.5H39.41L35,37.09Z"/><path class="cls-1" d="M64.16,51.67a1.37,1.37,0,0,1-1.45-1.43V40h2.58V37.1H62.71v-4a5.65,5.65,0,0,1-1.2.86,5.73,5.73,0,0,1-2.28.57V37.1H56.92V40h2.31V50.81c0,2.56,1.65,4,4.35,4a6,6,0,0,0,1.73-.18V51.67Z"/><path class="cls-1" d="M26.23,26.78H18.88V54.5h7.35c5,0,7.85-2.35,7.85-8V34.81C34.08,29.13,31.22,26.78,26.23,26.78ZM30.89,47c0,2.92-2.09,4.38-4.66,4.38H22.07V29.94h4.16c2.57,0,4.66,1.46,4.66,4.38Z"/></svg>