<svg xmlns="http://www.w3.org/2000/svg" viewBox="0 0 421.17 64.62"><defs><style>.cls-1{fill:#323234;}.cls-2{fill:#f99e33;}</style></defs><g id="Layer_2" data-name="Layer 2"><g id="Layer_1-2" data-name="Layer 1"><path class="cls-1" d="M20.79,14.29c-.43-5.34-2.6-9.39-8-9.39-4.33,0-7.15,2.89-7.15,6.86,0,11.76,20.94,11.91,20.94,28.66,0,8.3-4.77,13.28-13.36,13.28C5.05,53.7.14,47.71,0,39H5.2c.14,6.13,3,10,8.59,10,4.69,0,7.72-3,7.72-8.59C21.51,28.51.58,27.14.58,12.27.58,4.9,5.63.14,13.14.14S25.56,5.19,26,14.29Z"/><path class="cls-1" d="M84.39,53H79.48V48.87C77,51.39,73.42,53.7,71,53.7c-5.19,0-8.23-2.88-8.23-9.81V15.44h5.2V43.17c0,4.33,1.3,6.2,4.12,6.2,2.52,0,4.83-1.73,7.15-4.62V15.44h5.19Z"/><path class="cls-1" d="M94.35,15.44h5.2V20h.15c3.1-4.55,5.41-5.27,9.53-5.27v4.91c-3.9,0-6.86,1.3-9.68,6.64V53h-5.2Z"/><path class="cls-1" d="M54.94,34.21c0-12.8-3.26-18.72-10.23-19.36v4.3c3.51.56,5,3.9,5,15.06s-1.52,14.5-5,15.06v4.3C51.68,52.94,54.94,47,54.94,34.21Z"/><path class="cls-1" d="M37.18,34.21c0-11.12,1.51-14.47,5-15V14.85C35.23,15.51,32,21.44,32,34.21s3.25,18.7,10.19,19.36V49.26C38.69,48.68,37.18,45.33,37.18,34.21Z"/><path class="cls-1" d="M158,30.75h-4.77v4.33h10V32.62c0-10.09-3.12-16.84-10-17.72v4.31C156.75,20,157.9,23.61,158,30.75Z"/><path class="cls-1" d="M145.47,37.17V35.08h5.25V30.75h-5.25c.06-8.1,2.09-11.09,5.25-11.59V14.82c-7.12.53-10.45,6.45-10.45,19.39s3.33,18.86,10.45,19.39V49.21C147.06,48.49,145.47,45.16,145.47,37.17Z"/><path class="cls-1" d="M163.66,42.88l-4.91-.58c-.6,3.14-2.1,6.51-5.49,7v4.28C159.22,52.84,162.93,48.07,163.66,42.88Z"/><path class="cls-1" d="M117.38,34.21c0-11.19,1.54-14.51,5.06-15.06V14.84c-7,.63-10.25,6.55-10.25,19.37S115.46,53,122.44,53.58V49.27C118.92,48.73,117.38,45.41,117.38,34.21Z"/><path class="cls-1" d="M129.58,26.56h5.06c-.94-6.86-3.8-11.16-9.66-11.73v4.36C127.45,19.69,129.15,21.75,129.58,26.56Z"/><path class="cls-1" d="M134.78,41.14h-5.05c-.75,5.58-2.24,7.63-4.75,8.11v4.32C130.88,52.92,134,48,134.78,41.14Z"/><path class="cls-2" d="M188.36.73l11.39,51.71h-5.59l-3.08-15.32H177.9l-3.08,15.32h-5.58L180.62.73Zm-9.67,31.66h11.6L184.56,4.6h-.14Z"/><path class="cls-2" d="M205.55,15.2h4.87v4.08c2.43-2.51,6-4.8,8.45-4.8,5.16,0,8.17,2.87,8.17,9.74V52.44h-5.16V24.94c0-4.3-1.29-6.16-4.08-6.16-2.51,0-4.8,1.72-7.09,4.58V52.44h-5.16Z"/><path class="cls-2" d="M237.63,15.2l7,28.5h.15l5.73-28.5h5.3L247.3,51.66c-1.93,8.16-5.51,13-11.74,13h-2.65v-4.3h1.58c4.08,0,6.73-2.93,7.73-8.16l-9.88-37Z"/><path class="cls-2" d="M262.2,15.2l5.3,27.36h.14l6-27.36h4.87l6.16,27.36h.15l4.87-27.36h4.87l-7.74,37.24h-4.3L276.1,23.51H276l-6.44,28.93h-4.3L257.33,15.2Z"/><path class="cls-2" d="M299.88.73H305V19.28c2.15-2.51,5.73-4.8,8.17-4.8,5.16,0,8.17,2.87,8.17,9.74V52.44h-5.16V24.94c0-4.3-1.29-6.16-4.09-6.16-2.5,0-4.8,1.72-7.09,4.58V52.44h-5.15Z"/><path class="cls-2" d="M359.11,15.2h5.16v4.51h.14c3.08-4.51,5.37-5.23,9.46-5.23v4.87c-3.87,0-6.81,1.29-9.6,6.59v26.5h-5.16Z"/><path class="cls-2" d="M346.73,30.33h-5v4.33h10.23V32.2c0-10.21-3.2-17-10.23-17.75v4.32C345.39,19.4,346.61,23,346.73,30.33Z"/><path class="cls-2" d="M352.36,42.46l-4.9-.58c-.62,3.23-2.18,6.69-5.76,7v4.27C347.81,52.56,351.62,47.73,352.36,42.46Z"/><path class="cls-2" d="M334.17,36.76v-2.1h5V30.33h-5c.06-7.88,2-10.94,5-11.56V14.43C332.22,15.09,329,21,329,33.79s3.25,18.7,10.19,19.36V48.71C335.7,47.87,334.17,44.53,334.17,36.76Z"/><path class="cls-2" d="M394.65,30.33h-5v4.33h10.23V32.2c0-10.21-3.21-17-10.23-17.75v4.32C393.3,19.4,394.52,23,394.65,30.33Z"/><path class="cls-2" d="M400.28,42.46l-4.91-.58c-.62,3.23-2.18,6.69-5.75,7v4.27C395.72,52.56,399.54,47.73,400.28,42.46Z"/><path class="cls-2" d="M382.09,36.76v-2.1h5V30.33h-5c.06-7.88,2-10.94,5-11.56V14.43c-6.94.66-10.19,6.59-10.19,19.36s3.25,18.7,10.19,19.36V48.71C383.62,47.87,382.09,44.53,382.09,36.76Z"/><path class="cls-1" d="M403.07,2.4H400.4V0h8.1V2.4h-2.67V16.05h-2.76Z"/><path class="cls-1" d="M421.17,0V16.05h-2.4V3.51h0l-2.49,12.54H414.9L412.41,3.51h-.05V16.05H410V0h3.63l2,9.38h0l2-9.38Z"/></g></g></svg>