<svg xmlns="http://www.w3.org/2000/svg" width="66.322" height="62.207" viewBox="0 0 66.322 62.207">
  <g id="Group_1943" data-name="Group 1943" transform="translate(-86.136 -65.913)">
    <path id="Path_8237" data-name="Path 8237" d="M123.479,115.614a37.648,37.648,0,0,1-4.236.235c-15.059,0-20.6-8.285-20.832-8.638a1.058,1.058,0,0,1,1.775-1.153,15.21,15.21,0,0,0,4.283,3.845c2.745,1.748,7.537,3.832,14.774,3.832a34.663,34.663,0,0,0,4.083-.238c-.225-3.321-.345-6.625-.345-9.847,0-.791-.226-.791-.637-.791l-.234,0h-6.8a2.746,2.746,0,0,1-2.065-.808,2.677,2.677,0,0,1-.673-2.078c.008-.127.016-.307.027-.541a154.9,154.9,0,0,1,1.831-17.273,59.737,59.737,0,0,1,4.709-16.249H89.069c-.141,0-.284,0-.427.006a5.561,5.561,0,0,0-.8.068,2.086,2.086,0,0,0-.594.194,1.936,1.936,0,0,0-.842.841,2.091,2.091,0,0,0-.193.595,5.343,5.343,0,0,0-.069.8q-.005.217-.007.431V125.2c0,.132,0,.276.007.42a5.351,5.351,0,0,0,.068.8,2.093,2.093,0,0,0,.195.6,1.914,1.914,0,0,0,.84.839,2.048,2.048,0,0,0,.6.195,5.564,5.564,0,0,0,.8.068c.144,0,.281,0,.419.005H125.2c-.561-2.859-1.354-8.078-1.709-12.377C123.485,115.7,123.483,115.657,123.479,115.614ZM102.644,82.532a1.354,1.354,0,0,1,2.708,0v4.585a1.354,1.354,0,0,1-2.708,0Z" fill="#606060"/>
    <path id="Path_8238" data-name="Path 8238" d="M188.857,68.846q0-.213-.007-.427a5.492,5.492,0,0,0-.068-.8,2.129,2.129,0,0,0-.2-.6,1.935,1.935,0,0,0-.839-.836,2.113,2.113,0,0,0-.6-.2,5.581,5.581,0,0,0-.8-.067c-.143,0-.286-.005-.429-.007H157.895a56.381,56.381,0,0,0-4.971,16.573,152.784,152.784,0,0,0-1.808,17.046c-.011.247-.02.437-.028.571a.718.718,0,0,0,.1.5.767.767,0,0,0,.522.141h6.865l.17,0a2.606,2.606,0,0,1,2.756,2.911c0,3.118.113,6.314.327,9.529a24.768,24.768,0,0,0,8.667-3.28,15.632,15.632,0,0,0,4.354-3.851,1.064,1.064,0,0,1,.88-.466,1.045,1.045,0,0,1,.586.179,1.058,1.058,0,0,1,.294,1.461c-.2.3-4.285,6.251-14.626,8.091.007.086.012.171.019.257a123.6,123.6,0,0,0,1.757,12.551h22.166c.147,0,.285,0,.423-.005a5.611,5.611,0,0,0,.807-.068,2.072,2.072,0,0,0,.591-.193,1.918,1.918,0,0,0,.844-.841,2.1,2.1,0,0,0,.194-.6,5.5,5.5,0,0,0,.068-.8c0-.142.006-.285.007-.428s0-.305,0-.458V69.3C188.858,69.152,188.858,69,188.857,68.846ZM172.351,87.117a1.328,1.328,0,0,1-1.333,1.353,1.354,1.354,0,0,1-1.354-1.353V82.532a1.355,1.355,0,0,1,1.354-1.353,1.329,1.329,0,0,1,1.333,1.353Z" transform="translate(-36.4)" fill="#606060"/>
  </g>
</svg>
