<svg xmlns="http://www.w3.org/2000/svg" width="37.598" height="37.148" viewBox="0 0 37.598 37.148"><defs><style>.a{fill:rgba(0,0,0,0);stroke:#323234;stroke-linecap:round;stroke-linejoin:round;stroke-width:1.5px;}</style></defs><g transform="translate(0.975 0.75)"><path class="a" d="M36.148,19.5c0,4.281-3.469,6.2-7.749,6.2H8.25C3.969,25.7.5,23.781.5,19.5Z" transform="translate(-0.5 9.948)"/><path class="a" d="M.5,25,6.7,9.5H29.948l6.2,15.5" transform="translate(-0.5 4.449)"/><path class="a" d="M31.948,2.5H2.5L5.6,13.349H28.848Z" transform="translate(0.6 0.6)"/><path class="a" d="M2.5,3.6A3.1,3.1,0,0,1,5.6.5H28.848a3.1,3.1,0,0,1,3.1,3.1Z" transform="translate(0.6 -0.5)"/><path class="a" d="M24.649,11.5H7.6L4.5,20.8H27.749Z" transform="translate(1.7 5.549)"/><path class="a" d="M16.387,21.25a.387.387,0,1,1-.387.387.387.387,0,0,1,.387-.387" transform="translate(8.023 10.91)"/><path class="a" d="M19.387,21.25a.387.387,0,1,1-.387.387.387.387,0,0,1,.387-.387" transform="translate(9.673 10.91)"/></g></svg>