<svg xmlns="http://www.w3.org/2000/svg" width="47" height="47" viewBox="0 0 47 47">
  <g id="Files-Folders_Zipped-Files_zip-file-download" data-name="Files-Folders / Zipped-Files / zip-file-download" transform="translate(-516.038 -808.114)">
    <g id="Group_128" data-name="Group 128" transform="translate(517.038 809.114)">
      <g id="zip-file-download">
        <path id="Shape_604" data-name="Shape 604" d="M534.329,854.114H518.962a1.941,1.941,0,0,1-1.924-1.957V811.071a1.94,1.94,0,0,1,1.924-1.957h25.569a1.9,1.9,0,0,1,1.36.573l7.13,7.253a1.965,1.965,0,0,1,.564,1.383l-.021,6.443" transform="translate(-517.038 -809.114)" fill="none" stroke="#323234" stroke-linecap="round" stroke-linejoin="round" stroke-width="2"/>
        <path id="Shape_605" data-name="Shape 605" d="M523.793,816.892a.527.527,0,1,1,.154.374.529.529,0,0,1-.154-.374" transform="translate(-510.6 -802.204)" fill="none" stroke="#323234" stroke-linecap="round" stroke-linejoin="round" stroke-width="2"/>
        <path id="Shape_606" data-name="Shape 606" d="M523.793,819.392a.527.527,0,1,1,.154.374.529.529,0,0,1-.154-.374" transform="translate(-510.6 -799.822)" fill="none" stroke="#323234" stroke-linecap="round" stroke-linejoin="round" stroke-width="2"/>
        <path id="Shape_607" data-name="Shape 607" d="M523.793,821.892a.527.527,0,1,1,.154.374.529.529,0,0,1-.154-.374" transform="translate(-510.6 -797.439)" fill="none" stroke="#323234" stroke-linecap="round" stroke-linejoin="round" stroke-width="2"/>
        <path id="Shape_608" data-name="Shape 608" d="M523.783,824.392a.528.528,0,1,1,.528.528.528.528,0,0,1-.528-.528" transform="translate(-510.61 -795.057)" fill="none" stroke="#323234" stroke-linecap="round" stroke-linejoin="round" stroke-width="2"/>
        <path id="Shape_609" data-name="Shape 609" d="M523.783,826.913a.528.528,0,1,1,.528.528.528.528,0,0,1-.528-.528" transform="translate(-510.61 -792.654)" fill="none" stroke="#323234" stroke-linecap="round" stroke-linejoin="round" stroke-width="2"/>
        <path id="Shape_610" data-name="Shape 610" d="M523.783,829.454a.528.528,0,1,1,.528.528.529.529,0,0,1-.528-.528" transform="translate(-510.61 -790.663)" fill="none" stroke="#323234" stroke-linecap="round" stroke-linejoin="round" stroke-width="2"/>
        <path id="Shape_611" data-name="Shape 611" d="M528.852,816.745a3.133,3.133,0,0,1-.754,2.458,3.1,3.1,0,0,1-2.324,1.057h-.131a3.1,3.1,0,0,1-2.324-1.057,3.149,3.149,0,0,1-.754-2.458l.754-7.631h4.5Z" transform="translate(-511.905 -809.114)" fill="none" stroke="#323234" stroke-linecap="round" stroke-linejoin="round" stroke-width="2"/>
        <path id="Oval_65" data-name="Oval 65" d="M540.717,845.472a12.679,12.679,0,1,0-12.679-12.679A12.68,12.68,0,0,0,540.717,845.472Z" transform="translate(-508.396 -800.472)" fill="none" stroke="#323234" stroke-linecap="round" stroke-linejoin="round" stroke-width="2"/>
        <path id="Shape_612" data-name="Shape 612" d="M534.038,823.114v12.679" transform="translate(-500.777 -797.133)" fill="none" stroke="#323234" stroke-linecap="round" stroke-linejoin="round" stroke-width="2"/>
        <path id="Shape_613" data-name="Shape 613" d="M536.543,831.619l-4.755-4.755" transform="translate(-503.18 -792.958)" fill="none" stroke="#323234" stroke-linecap="round" stroke-linejoin="round" stroke-width="2"/>
        <path id="Shape_614" data-name="Shape 614" d="M534.038,831.619l4.755-4.755" transform="translate(-501.066 -792.958)" fill="none" stroke="#323234" stroke-linecap="round" stroke-linejoin="round" stroke-width="2"/>
      </g>
    </g>
  </g>
</svg>
